<svg xmlns="http://www.w3.org/2000/svg" viewBox="0 0 159.51 251.14"><defs><style>.cls-1{fill:#fff;isolation:isolate;}.cls-2{fill:#f0b1e6;}.cls-3{fill:#e30615;}.cls-4{fill:#69410a;}.cls-5{fill:#fdc831;}</style></defs><g id="Ebene_2" data-name="Ebene 2"><g id="Ebene_1-2" data-name="Ebene 1"><g id="Ebene_2-2" data-name="Ebene 2"><path class="cls-1" d="M24.43,220.5c-4.07-5.38-5.23-12.4-5.53-19.14a94.3,94.3,0,0,1,10.67-47.83c1.59-3,3.4-6.35,2.57-9.66-1-3.83-5-5.89-8.23-8.11C11.45,127.33,6,111.29,6.19,96.25s5.05-29.57,9.29-44c2.3-7.83,4.44-16.09,2.73-24.07-1-4.56-3.2-9.11-2.19-13.66A14.42,14.42,0,0,1,19.8,8C23.85,3.65,29.89.77,35.69,2,44.23,3.7,49,13.42,48.87,22.14s-3.69,17-5.74,25.44A73.84,73.84,0,0,0,41.92,76.1c.54,3.49,2.67,7.88,6.11,7.13,2.68-.58,3.59-3.89,3.86-6.61,1.4-13.78.16-29,8.55-40a7.34,7.34,0,0,1,2.33-2.18c1.51-.78,3.31-.59,5-.43a74.16,74.16,0,0,0,33.81-4.8c5-2,10.15-4.55,15.52-4,9.28,1,14.65,10.56,20.87,17.51A47.49,47.49,0,0,0,155.33,55a90.93,90.93,0,0,1-14.67,50.4c-1.73,2.66-3.67,5.39-3.93,8.55-.38,4.6,2.82,8.59,4.81,12.75a25.85,25.85,0,0,1,.82,20c-1.1,2.9-2.76,5.78-2.5,8.87s2.34,5.58,4,8.18c7.36,11.67,6.3,26.64,4.08,40.26-1.14,7-2.58,14.12-6.26,20.17s-10.06,10.92-17.15,11c-4,0-8.42-1.4-11.81.75-1.44.91-2.46,2.35-3.88,3.29-2.2,1.46-5,1.51-7.64,1.52-6.32,0-12.9,0-18.61-2.74-2.67-1.27-5-3.09-7.66-4.48a27.11,27.11,0,0,0-21.19-1.7c-2.24.76-4.43,1.84-6.79,2s-5-.73-6-2.91c-.36,1.73-2.61,2.47-4.28,1.89s-2.85-2-3.94-3.41c-1.66,2.46-5.45,0-6.95-2.55C22.48,221.19,20.59,214.72,24.43,220.5Z"/><path class="cls-2" d="M21.36,21.68a4.46,4.46,0,0,1-3.18-2.56A6.73,6.73,0,0,1,17.8,15c.1-.53.35-1.15.89-1.24a1.25,1.25,0,0,1,.84.24,4.41,4.41,0,0,1,2,3.06,15.41,15.41,0,0,0,.31,3.14,3.29,3.29,0,0,1,.41,1.3C22.25,21.92,21.66,22.34,21.36,21.68Z"/><path class="cls-2" d="M28.78,21a6,6,0,0,1-3.4-9,1.08,1.08,0,0,1,.75-.58c.39,0,.67.34.87.68a27.7,27.7,0,0,1,2.69,7,1.68,1.68,0,0,1,0,1.3C29.48,20.77,28.76,20.8,28.78,21Z"/><path class="cls-2" d="M34.5,19.83a16.44,16.44,0,0,1-3.83-9.26,3.18,3.18,0,0,1,.87-2.92,1.1,1.1,0,0,1,1-.21c.47.16.67.7.82,1.17.38,1.28.76,2.55,1.15,3.83a23.5,23.5,0,0,1,1.32,6.71.56.56,0,0,1-.11.4.53.53,0,0,1-.33.12C34.82,19.74,34.28,19.65,34.5,19.83Z"/><path class="cls-2" d="M64.33,58.08a3.25,3.25,0,0,0-2.89,1.16A7.18,7.18,0,0,0,60,62.15a19.44,19.44,0,0,0-.64,3.55,4.27,4.27,0,0,0,.23,2.16,4.1,4.1,0,0,0,1.2,1.39,11.07,11.07,0,0,0,6.78,2.63A8.28,8.28,0,0,0,74.13,69a4.44,4.44,0,0,0,1.07-2.67,6.4,6.4,0,0,0-1.09-3.08c-.57-1-1.29-2.12-2.43-2.3"/><path class="cls-2" d="M121.23,76.66c-1.67.35-3.47.76-4.59,2a7.23,7.23,0,0,0-1.38,3.35c-.32,1.53-.5,3.25.38,4.54s2.81,1.79,4.5,1.91a25.11,25.11,0,0,0,5.48-.21,11.54,11.54,0,0,0,5.23-1.88,5.64,5.64,0,0,0,2.46-4.77,3.78,3.78,0,0,0-3.63-3.53"/><path class="cls-2" d="M93.68,76.55a4,4,0,0,0,1-2.77,3.9,3.9,0,0,0-.46-1.14l-1.3-2.43a2.2,2.2,0,0,1-.37-1.2,1.49,1.49,0,0,1,.89-1.16,4,4,0,0,1,1.49-.3A10.59,10.59,0,0,1,99,68a5.06,5.06,0,0,1,3,2.61,3.33,3.33,0,0,1-.72,3.78c-1,.9-2.55.9-3.92,1A7.25,7.25,0,0,0,93.68,76.55Z"/><path class="cls-2" d="M128.17,26.75a65.11,65.11,0,0,0,23.73-8c1.43-.82,3.19-1.7,4.62-.89a3.54,3.54,0,0,1,1.21,1.28,13.12,13.12,0,0,1,1.57,5.55A68,68,0,0,1,159,37.44q-.78,8.63-2,17.21a3.28,3.28,0,0,1-.63,1.79c-.83.92-2.41.6-3.35-.21a36.39,36.39,0,0,1-2.35-2.88,16.43,16.43,0,0,0-4.52-2.83c-6.63-3.54-11-10.1-15.11-16.4C129.67,32,128.22,29.5,128.17,26.75Z"/><path class="cls-3" d="M17.87,203.31c3.67,4.34,4.2,10.42,5.55,15.94S28,230.78,33.6,231.69c1.24.2,2.64.19,3.54,1.05.44.42.72,1,1.28,1.26,1,.43,2-.61,3-1,1.91-.82,4,.58,6.06.81,2.29.25,4.44-1,6.62-1.72A34.94,34.94,0,0,1,63,230.59a18.43,18.43,0,0,1,5.14.09c3.19.66,5.75,2.93,8.44,4.78a36.18,36.18,0,0,0,33.29,3.68,60.63,60.63,0,0,1,6.14-2.42,41.35,41.35,0,0,1,5.77-1,74.17,74.17,0,0,0,8.23-1.57c4.21-1.06,8.66-2.74,11-6.42,1.34-2.14,1.77-4.71,2.34-7.17a58.19,58.19,0,0,1,4.87-13.35c.65-1.27,1.65-2.7,3.07-2.59,2.12.16,2.34,3.15,2.11,5.26-1.25,11.41,3.22,23,1.29,34.3a9,9,0,0,1-1.82,4.55c-2,2.24-5.35,2.38-8.33,2.36l-77.74-.49c-6.59,0-13.19-.08-19.76-.66-5.4-.47-10.78-1.31-16.2-1.35-7.18,0-14.49,1.27-21.47-.45-3-.74-6-2.14-7.68-4.7C-.54,240.19-.1,235.88.42,232c.81-6.08,1.66-12.31,4.54-17.73S13.21,204.29,17.87,203.31Z"/><path class="cls-4" d="M62.72,34l12-21.44c3-5.3,6.64-11.14,12.6-12.35a8.36,8.36,0,0,1,4.6.28c3,1.15,4.79,4.22,6.42,7,4.39,7.55,10.28,15.26,18.82,17.09C100,32.18,80.94,35.66,62.72,34Z"/><path class="cls-3" d="M76.79,24c-.21-6,3.68-11.28,7.38-16a6.18,6.18,0,0,1,1.4-1.44c1.57-1,3.78-.38,5.15.91a17.92,17.92,0,0,1,3,4.72,30.68,30.68,0,0,0,3.41,5,3.27,3.27,0,0,1,.93,1.7A2,2,0,0,1,97,20.66a5.88,5.88,0,0,1-2.1.63L78.34,24.1C77.7,24.23,76.8,24.11,76.79,24Z"/><path class="cls-3" d="M137.07,31c.28-1.45,1.91-2.15,3.32-2.61l9.19-3a2.87,2.87,0,0,1,2-.15A2.62,2.62,0,0,1,152.78,27c1.57,5.41,0,11.27-2.48,16.3a2.49,2.49,0,0,1-.89,1.13c-1,.58-2.19-.39-2.95-1.27L138,33.45A3.42,3.42,0,0,1,137.07,31Z"/><path class="cls-3" d="M50.26,83.77a8.34,8.34,0,0,1,1.38-10.39c6.41,7.41,13.68,14.28,22.42,18.7A101.72,101.72,0,0,0,86.34,97l18.91,6.61a58.09,58.09,0,0,0,8.12,2.4c4.38.83,8.88.63,13.33.43,5.38-.25,10.89-.52,15.83-2.66.32,3.33-2,6.48-4.93,8.08s-6.38,1.93-9.72,2c-19.61.65-39-5.3-56.59-13.92a51,51,0,0,1-9.74-5.83C57.17,90.6,52.5,87.23,50.26,83.77Z"/><path class="cls-5" d="M125.55,26.36c-2.1-.19-4.83,0-5.45,2-.38,1.25.32,2.54,1,3.65a199.21,199.21,0,0,0,23.44,30.64c3,3.22,6.4,6.5,10.74,7.27a18.36,18.36,0,0,0,1.24-10.12,5.69,5.69,0,0,0-.68-2.11,7,7,0,0,0-1.67-1.67c-9.2-7.17-19.63-14-24.1-24.76a11,11,0,0,0-2-3.72C127.06,26.58,125.32,26.11,125.55,26.36Z"/><path class="cls-5" d="M74.66,53.22c-1.61-.17-3.11-1.69-4.62-1.1a3.43,3.43,0,0,0-1,.73l-2,1.78c-1.48,1.31-3.09,3-2.77,4.93.26,1.62,1.78,2.7,3.17,3.59a9.21,9.21,0,0,0,3.15,1.49,9.23,9.23,0,0,0,4.94-.94,5.56,5.56,0,0,0,2.89-1.92A5.54,5.54,0,0,0,79,59.39c.22-2.14.27-4.7-1.47-6C76.44,52.63,74.88,52.65,74.66,53.22Z"/><path class="cls-5" d="M129.38,70.18a6.64,6.64,0,0,0-7.71,1.23,13,13,0,0,0-1.89,2.84c-.76,1.4-1.52,3.15-.66,4.5a4.15,4.15,0,0,0,2.12,1.43,23.64,23.64,0,0,0,7.38,1.53,6.47,6.47,0,0,0,4.51-1.08,6.74,6.74,0,0,0,1.89-4,7.19,7.19,0,0,0,0-3.77,5.81,5.81,0,0,0-2.07-2.54C131.17,69,129,68.18,129.38,70.18Z"/><path class="cls-5" d="M91.24,98.36a13.17,13.17,0,0,1,.79,4.55,4.5,4.5,0,0,1-2.23,3.82c-1.73.85-3.78.07-5.71,0a8.77,8.77,0,0,0-6.41,3.08,16.08,16.08,0,0,0-3.31,6.47,11.12,11.12,0,0,0-.51,4.71,9.09,9.09,0,0,0,1.32,3.39,13.46,13.46,0,0,0,12.3,6.27,13.13,13.13,0,0,0,11-8.29,8.29,8.29,0,0,0,.29-5.51c-1.08-3.14-4.58-5-5.45-8.25a5.53,5.53,0,0,0,4.27-6.24A5.34,5.34,0,0,0,91.24,98.36Z"/><path class="cls-5" d="M12,100.7c-2.73,4.14-2.23,9.92.6,14s7.62,6.5,12.53,7.19a5.48,5.48,0,0,0,2.21,0,4.92,4.92,0,0,0,2.27-1.58,13.3,13.3,0,0,0,3.11-8.83,22.33,22.33,0,0,0-2.26-9.22c-1.11-2.41-2.64-4.81-5-5.93a10.72,10.72,0,0,0-4.12-.84,9.86,9.86,0,0,0-5.26.94,12.33,12.33,0,0,0-3.87,4.09C11.77,101.09,11.51,102.2,12,100.7Z"/><path class="cls-5" d="M105.76,195.75c-2.5.5-5.34,1.25-6.47,3.54a8.4,8.4,0,0,0-.3,4.85c.18,1.32.36,2.65.53,4a9.94,9.94,0,0,0,5.76,9.14,8.06,8.06,0,0,0,3.67,1.58,6.28,6.28,0,0,0,4.48-2,14.2,14.2,0,0,0,4.35-12.18,7.66,7.66,0,0,0-1.19-3.36,10.45,10.45,0,0,0-3.94-2.95A21,21,0,0,0,105.76,195.75Z"/><path d="M74.2,117.26c.16,1.34.37,2.68.64,4a2.88,2.88,0,0,0,.85,1.77,8,8,0,0,0,3.72,3.46,1.09,1.09,0,0,0,.72.13,1.19,1.19,0,0,0,.53-.39,9.37,9.37,0,0,0,1.72-2.86.93.93,0,0,0,.09-.49,1.14,1.14,0,0,0-.33-.54A4.09,4.09,0,0,1,81,119.85a3.72,3.72,0,0,1,2.82-3.52,5.74,5.74,0,0,1,4.62,1,5.27,5.27,0,0,1,2,2.28,3.17,3.17,0,0,1-.21,2.92c-.9,1.32-2.73,1.51-4.32,1.6a2.11,2.11,0,0,0-2.36.83,6.16,6.16,0,0,0-.93,2.5.73.73,0,0,0,.6,1,14.92,14.92,0,0,0,9.63-.28,3.76,3.76,0,0,1,1.66-.38,12.32,12.32,0,0,1-16.1.31,20.25,20.25,0,0,1-2-2,9.5,9.5,0,0,1-2.27-3.48,10.52,10.52,0,0,1-.34-2.75C73.74,118.75,73.89,117.19,74.2,117.26Z"/><path class="cls-4" d="M12,85.23c-2.83,1.41-4.28,4.84-4,8a13.41,13.41,0,0,0,4.47,8.13c2.26,2.12,5.57,3.75,8.4,2.49s3.81-4.76,3.93-7.84a26.85,26.85,0,0,0-1.7-10.5,7.26,7.26,0,0,0-2-3.15,6.13,6.13,0,0,0-2.79-1.17A8.3,8.3,0,0,0,12,82.41C10.14,83.75,9.16,86.28,12,85.23Z"/><path class="cls-4" d="M104.91,187.77c-1.39,2.09-2.84,4.39-2.68,6.89a9.16,9.16,0,0,0,1,3.25,15.24,15.24,0,0,0,7.51,7.78c3.4,1.43,7.68,1,10.32-1.54a11.84,11.84,0,0,0,2.81-4.93,14.8,14.8,0,0,0,.72-6.94,18.84,18.84,0,0,0-3.63-7.65,8.36,8.36,0,0,0-2.68-2.71c-1.69-.91-3.77-.64-5.62-.11a13.79,13.79,0,0,0-5.75,3C105.29,186.32,104.21,188.46,104.91,187.77Z"/></g></g></g></svg>