<svg xmlns="http://www.w3.org/2000/svg" viewBox="0 0 108.03 449.39"><defs><style>.cls-1{fill:#fceca9;}.cls-2{fill:#645585;}.cls-3{fill:#d5a0db;}</style></defs><g id="Ebene_2" data-name="Ebene 2"><g id="Ebene_1-2" data-name="Ebene 1"><g id="Ebene_4" data-name="Ebene 4"><polygon class="cls-1" points="0 447.16 40.52 278.69 39.81 2.17 50.83 0.75 51.18 236.75 95.26 55.13 107.34 56.55 50.47 280.82 49.41 404.87 40.88 405.58 43.54 301.73 6.72 447.82 0 447.16"/><polygon class="cls-2" points="39.89 104.88 51.57 103.97 52.25 0 39.2 0.23 39.89 104.88"/><polygon class="cls-2" points="70.06 158.27 81.79 160.59 108.03 55.74 94.68 54.35 70.06 158.27"/><path class="cls-3" d="M40.88,104.46c3.39.66,6.81-.66,10.23-1.21.39-.06.88-.07,1.07.28a1,1,0,0,1,.06.6q-.78,6.8-1.87,13.56l-7-.34a6.82,6.82,0,0,1-3-.62C40.41,112.47,40.52,108.23,40.88,104.46Z"/><polygon class="cls-3" points="68.18 165.97 70.38 157.91 81.61 160.41 78.74 169.2 68.18 165.97"/><polygon class="cls-3" points="0.11 446.98 8.73 407.7 16.19 409.77 6.43 447.9 2.87 449.39 0.11 446.98"/><polygon class="cls-3" points="41.92 363.14 49.61 363.03 49.5 405.64 45.48 407.82 41.23 406.56 41.92 363.14"/><path d="M9.17,407.92a41.29,41.29,0,0,1,7.34,1.92.25.25,0,0,1,.17.13c0,.06,0,.13-.05.19l-.71,1.15a.92.92,0,0,1-.38.4.92.92,0,0,1-.52,0q-3.11-.79-6.13-1.83a1,1,0,0,1-.62-.41,1,1,0,0,1,.15-.94,1.94,1.94,0,0,1,.41-.6C9,407.75,9.27,407.66,9.17,407.92Z"/><path d="M8.25,411.06a13,13,0,0,0,4.11,1,7,7,0,0,1,3.07.58,7.47,7.47,0,0,1-.57,1.73,15.7,15.7,0,0,1-2.69-.64l-3.76-1.12c-.33-.1-.73-.28-.74-.63a.86.86,0,0,1,.2-.48,1.31,1.31,0,0,1,.39-.42C8.41,411,8.64,411,8.25,411.06Z"/><path d="M42,363.23l7.29-.4a.44.44,0,0,1,.57.53v1.38q-3.65.28-7.31.39a1.43,1.43,0,0,1-.62-.07,1,1,0,0,1-.43-1.24C41.66,363.36,42.05,363,42,363.23Z"/><path d="M41.71,367.4c2.7.9,5.64.29,8.42-.33a1.57,1.57,0,0,1-.69,2,4.56,4.56,0,0,1-2.26.48l-4.9.17a1,1,0,0,1-.34,0,.78.78,0,0,1-.48-.56A2.67,2.67,0,0,1,41.71,367.4Z"/><path d="M42,4.08A2.51,2.51,0,0,0,41.92,6a1.56,1.56,0,0,0,1.67-1.28C43.69,4,42.62,2.77,42,4.08Z"/><path d="M48.16,4.08A2.58,2.58,0,0,0,48,5.87a1.32,1.32,0,0,0,.8-1.29C48.68,4,48,3.63,48.16,4.08Z"/><path d="M41.74,11.37a1.85,1.85,0,0,0,1.18,1.75,1.37,1.37,0,0,0,.74-1.22,1.39,1.39,0,0,0-.78-1.2C42.63,10.58,42.2,10.75,41.74,11.37Z"/><path d="M48.55,10.41A2.91,2.91,0,0,0,48,12.62a1.64,1.64,0,0,0,1.44-1.38C49.47,10.53,48.57,9.89,48.55,10.41Z"/><path d="M42.23,18.77a3.71,3.71,0,0,0-.18,2.54,4,4,0,0,0,1.26-1.11,1.38,1.38,0,0,0,0-1.58C43.15,18.41,42.88,18.28,42.23,18.77Z"/><path d="M49.23,17a7.05,7.05,0,0,0-1.52,3.53A1.75,1.75,0,0,0,50,19.34,3.44,3.44,0,0,0,49.23,17Z"/><path d="M41.85,29a4.12,4.12,0,0,0,.36,2.56,3.6,3.6,0,0,0,1.12-2.67,1.46,1.46,0,0,0-.25-.87.68.68,0,0,0-.82-.23C42,27.88,42,28.34,41.85,29Z"/><path d="M48.92,25.92a6.48,6.48,0,0,0-.64,3.19c.85.23,2,0,2.2-.83a1.34,1.34,0,0,0-.88-1.39C49.05,26.66,48.44,26.69,48.92,25.92Z"/><path d="M96.72,57.6a1.85,1.85,0,0,0,.36,1.6,2.7,2.7,0,0,0,.53-.85,1,1,0,0,0-.15-1,.59.59,0,0,0-.88,0Z"/><path d="M101.83,58.31a2,2,0,0,0-.32,1.67,1.1,1.1,0,0,0,1.23-1.1C102.67,58.24,101.73,57.88,101.83,58.31Z"/><path d="M94.85,64.34c-.09.41-.19.81-.28,1.22l.42.35a4.25,4.25,0,0,0,1.28-1.06,1.41,1.41,0,0,0,.1-1.57.87.87,0,0,0-1.4,0C94.76,63.66,94.9,64.11,94.85,64.34Z"/><path d="M101.24,64.61A4.23,4.23,0,0,0,100,66.49a1,1,0,0,0,1.12.19,1.87,1.87,0,0,0,.82-.87,1.48,1.48,0,0,0,.11-1.42C101.82,64,101.06,63.89,101.24,64.61Z"/><path d="M93,71.16l.82.81a1.31,1.31,0,0,0,.67-2,.94.94,0,0,0-1.17-.23C93,70,93,70.6,93,71.16Z"/><path d="M99.86,71.06a5.14,5.14,0,0,0-1.63,2.14.8.8,0,0,0,1.2.3,2.16,2.16,0,0,0,.71-1.23,1.87,1.87,0,0,0,0-1.45C99.85,70.4,99.08,70.34,99.86,71.06Z"/><path d="M91.84,77.31a5.65,5.65,0,0,0-1.73,2.34.84.84,0,0,0,1,.35,2.24,2.24,0,0,0,.92-.67,3.75,3.75,0,0,0,.84-1.14,1.36,1.36,0,0,0-.13-1.35,1.25,1.25,0,0,0-1.18.49C91.32,77.71,91.46,78.32,91.84,77.31Z"/><path d="M97,77.69a4.41,4.41,0,0,0-.67,2.76,1.58,1.58,0,0,0,1.39-.77,2,2,0,0,0,.43-1.23,1.14,1.14,0,0,0-.71-1C97.05,77.29,96.52,77.56,97,77.69Z"/></g></g></g></svg>