<svg xmlns="http://www.w3.org/2000/svg" viewBox="0 0 429.32 263.1"><defs><style>.cls-1{fill:#fff;opacity:0.8;isolation:isolate;}.cls-2{fill:#db4d8d;}.cls-3{fill:#69410a;}.cls-4{fill:#fa9de0;}</style></defs><g id="Ebene_2" data-name="Ebene 2"><g id="Ebene_1-2" data-name="Ebene 1"><g id="Ebene_3" data-name="Ebene 3"><polygon class="cls-1" points="145.29 247.46 3.05 261.38 4.07 240.33 1.02 222.68 7.81 204.35 10.52 184.66 21.39 163.61 25.8 147.66 40.06 127.97 47.19 113.37 63.82 97.76 72.99 82.82 85.55 69.92 98.11 55.32 120.85 43.78 136.13 33.94 156.84 23.41 172.79 16.96 196.89 11.19 214.55 7.8 238.65 1.01 256.98 1.69 281.76 1.69 301.79 3.38 323.52 10.85 340.83 10.85 361.54 22.05 377.83 27.82 394.81 42.08 410.3 54.65 307.64 170.63 273.79 158.42 246.6 153.98 199.99 169.52 177.24 188.94 157.82 212.81 145.29 247.46"/><polygon class="cls-2" points="152.42 219.97 10.52 184.32 7.13 202.99 152.42 219.97"/><polygon class="cls-2" points="20.37 161.58 25.12 146.98 159.21 204.01 154.46 212.16 20.37 161.58"/><polygon class="cls-2" points="38.36 126.61 46.17 112.69 166.2 190.34 166.34 190.43 163.29 197.9 38.36 126.61"/><polygon class="cls-2" points="63.14 96.74 167.46 182.33 169.06 183.64 178.22 180.93 71.97 81.46 63.14 96.74"/><polygon class="cls-2" points="86.9 67.54 184.33 172.78 99.13 54.64 86.9 67.54"/><polyline class="cls-2" points="198.25 163.61 195.45 159.07 193.07 155.21 121.87 39.71 134.77 31.56"/><polygon class="cls-2" points="145.29 237.62 0.34 241.35 0 223.7 145.29 237.62"/><polygon class="cls-2" points="211.73 153.92 158.51 23.47 173.84 17.11 218.57 150.53 211.73 153.92"/><polygon class="cls-2" points="227.25 148.67 198.3 11.47 214.53 6.58 232.29 148.11 227.25 148.67"/><polygon class="cls-2" points="243.75 148.81 238.86 2.24 256.76 0 250.05 146.71 243.75 148.81"/><polygon class="cls-2" points="262.3 148.8 283.24 3.04 299.86 3.21 268.28 147.97 262.3 148.8"/><polygon class="cls-2" points="279.75 149.13 322.63 10.85 341.24 11.68 279.75 149.13"/><polygon class="cls-2" points="291.04 154.9 362.75 24.06 378.72 29.88 299.02 155.84 291.04 154.9"/><polygon class="cls-2" points="305.42 166.28 394.2 43.5 412.3 50.71 310.72 167.02 305.42 166.28"/><path class="cls-3" d="M234,243.48c-21.6,5.46-89,4.73-89,4.73l1.7-9.58,71.64.36-68-5.33.12-4.12,54.58,3.8-50.4-14.83L157,214.6l54.15,14.51L161.48,206.3l2.71-4.39L210,223l-39.79-28.31,1.75-4.71,45.69,31.9-39.32-39,4.31-2.31,37.64,36.68,3.11.24-35.64-44.67,1.74-6,36.05,46.84,2.4-.11L200.1,163.2l2.94-3.81,29,52.17,2.4-1.2L214.8,156.77l4.79-3.81L236,205.35l-3.92-53.15,4.9-.76,6.21,62.74,3.49-.22,1-63.28,6.54-1L252,201.77l12.59-49.68,5,1.11-12.31,47.28,22.9-46.29,3.2,2.22-23.64,53.05-1.11,2.48,36.44-50.73,3.57,3.08L265,213.17,411.88,52l17.44,15-169,164S241,241.69,234,243.48Z"/><path class="cls-3" d="M237.84,247a27.14,27.14,0,0,0,2.13-6.25c-2.55.05-4.57,2.06-6.29,3.94q-3.94,4.29-7.88,8.57c-.91,1-1.89,2.19-1.68,3.52s1.41,2.11,2.54,2.72a30.72,30.72,0,0,0,24.75,1.74,23.3,23.3,0,0,0,11.57-8.7,16,16,0,0,0,2-14.06,8,8,0,0,0-4.3-4.89c-2-.76-4.23-.31-6.37-.22-2.87.12-6.46-.07-7.79,2.47-1,1.94,0,4.3-.12,6.49a6,6,0,0,1-2.91,4.72,3.89,3.89,0,0,1-3.24.46C239.17,247.17,238.38,246,237.84,247Z"/><path class="cls-4" d="M165.36,77a5.31,5.31,0,0,1-4-2,3.51,3.51,0,0,1,0-4.26c.92-1.07,2.46-1.32,3.86-1.5a1.1,1.1,0,0,1,.65,0,1,1,0,0,1,.42.48C167.31,71.72,167.23,74.19,165.36,77Z"/><path class="cls-4" d="M169,76a2.25,2.25,0,0,1-.64-2c0-.75,0-1.51,0-2.26a3.37,3.37,0,0,1,.08-.84,2.1,2.1,0,0,1,1.11-1.25,5,5,0,0,1,1.65-.43,4.44,4.44,0,0,1,3.53.77,3,3,0,0,1,.9,2.47,4,4,0,0,1-1.17,2.41,3.59,3.59,0,0,1-.93.71C172.28,76.33,170.71,75.93,169,76Z"/><path class="cls-4" d="M170,79.8c.07.85-.21,1.86.41,2.45a2.2,2.2,0,0,0,.82.42l1,.35a3.2,3.2,0,0,0,1.22.24,2.17,2.17,0,0,0,1.41-.77A5.2,5.2,0,0,0,176,79.4a3.55,3.55,0,0,0-.14-1.62,1.47,1.47,0,0,0-1.2-1,2.6,2.6,0,0,0-.68.1l-2.73.72a1.25,1.25,0,0,0-.59.28,1,1,0,0,0-.22.47C170.28,79,170.25,79.61,170,79.8Z"/><path class="cls-4" d="M166.85,83.84c-.2.49-.54.91-.76,1.39a1.67,1.67,0,0,0-.08,1.52,1.74,1.74,0,0,0,.49.52,4.41,4.41,0,0,0,3.91.71,3,3,0,0,0,1.49-1,1.82,1.82,0,0,0,.34-1.69,2.65,2.65,0,0,0-.82-1.06,9.18,9.18,0,0,0-2.07-1.37,2.31,2.31,0,0,0-1.44-.31C167.4,82.69,167.11,83.21,166.85,83.84Z"/><path class="cls-4" d="M161.06,83.94a1.53,1.53,0,0,0,1.56.26,4.06,4.06,0,0,0,1.37-.91,5.71,5.71,0,0,0,1.3-1.52,2.05,2.05,0,0,0-1.22-3.12,7.15,7.15,0,0,0-1.84-.3l-1.59-.11a1.88,1.88,0,0,0-1.13.15c-.58.34-.63,1.15-.54,1.82A6.24,6.24,0,0,0,161.06,83.94Z"/><path class="cls-4" d="M100.38,139.63a11.32,11.32,0,0,1,3.8-4.38,2.1,2.1,0,0,1,1.13-.45c.88,0,1.43.93,1.74,1.75a20.49,20.49,0,0,1,1.11,4.2,2.4,2.4,0,0,1-.1,1.48c-.48.93-1.8.91-2.84.75a9.11,9.11,0,0,1-2.79-.72A4.1,4.1,0,0,1,100.38,139.63Z"/><path class="cls-4" d="M100.11,141.88c.88,1.15,1.7,2.35,2.47,3.58a2.44,2.44,0,0,1,.48,1.29,1.92,1.92,0,0,1-.54,1.18A4.18,4.18,0,0,1,98,149.22a3.45,3.45,0,0,1-2.13-4,3.86,3.86,0,0,1,2-2.27C98.83,142.48,99.88,142.3,100.11,141.88Z"/><path class="cls-4" d="M96.35,141.27c-1.37.79-2.39,2.43-4,2.42a4,4,0,0,1-2.86-2A2.28,2.28,0,0,1,88.9,140a2.19,2.19,0,0,1,1.15-1.23,4.53,4.53,0,0,1,2.81-.86C94.32,138.05,95.31,139.41,96.35,141.27Z"/><path class="cls-4" d="M96.62,137.63a6.49,6.49,0,0,1-3.79-1.92,3.6,3.6,0,0,1,2.56-5.85,2.42,2.42,0,0,1,1.73.49,2.88,2.88,0,0,1,.66.92,5.72,5.72,0,0,1,.7,2.91C98.42,135.19,97.92,136.19,96.62,137.63Z"/><path class="cls-4" d="M73.47,156.33a8.46,8.46,0,0,1,.26-5.33,1.35,1.35,0,0,1,.37-.59,1.17,1.17,0,0,1,.55-.19c2.15-.33,4.18,1.09,5.64,2.69a5.91,5.91,0,0,1,1.53,2.51,2.58,2.58,0,0,1-.8,2.68,3.22,3.22,0,0,1-2.67.29,12.12,12.12,0,0,0-2.71-.57,3.79,3.79,0,0,1-1.39-.08C73.27,157.37,73.19,156,73.47,156.33Z"/><path class="cls-4" d="M69.1,157.73a9,9,0,0,0-2.62-2.22,3.54,3.54,0,0,1-1.78-2.8,2.43,2.43,0,0,1,1.32-2,3.66,3.66,0,0,1,2.4-.29,2.65,2.65,0,0,1,1.46.71,3.76,3.76,0,0,1,.77,2.09,5,5,0,0,1,0,2.17A8.66,8.66,0,0,1,69.1,157.73Z"/><path class="cls-4" d="M66.32,159.62a5.28,5.28,0,0,0-4.72-.84c-1.22.39-2.4,1.51-2.17,2.77A2.38,2.38,0,0,0,61,163.23a5.82,5.82,0,0,0,2.35.27,3.13,3.13,0,0,0,2.5-.94,3.32,3.32,0,0,0,.47-1.61A4.44,4.44,0,0,0,66.32,159.62Z"/><path class="cls-4" d="M70,161.47a9.41,9.41,0,0,0-.77,3.39,2.17,2.17,0,0,0,.39,1.56,2.2,2.2,0,0,0,1.24.57,9,9,0,0,0,3.68-.09,2.52,2.52,0,0,0,1.58-.91,1.91,1.91,0,0,0-.09-2,4.15,4.15,0,0,0-1.6-1.33A10.26,10.26,0,0,0,70,161.47Z"/><path class="cls-4" d="M111.8,114.45c-1.56-.2-3.26-.47-4.29-1.65a6.56,6.56,0,0,1-1.19-2.71,2.46,2.46,0,0,1,0-1.69,2.54,2.54,0,0,1,.72-.78c1.06-.86,2.38-1.77,3.67-1.34a3.28,3.28,0,0,1,1.54,1.27,4.93,4.93,0,0,1,1.06,3.26A13,13,0,0,1,111.8,114.45Z"/><path class="cls-4" d="M116.15,110.32a6.9,6.9,0,0,1-1.55-4,2.88,2.88,0,0,1,2.58-2.92,4.44,4.44,0,0,1,2,.69c.8.44,1.7,1.05,1.72,2,0,1.18-1.5,2.23-1,3.28A32,32,0,0,0,116.15,110.32Z"/><path class="cls-4" d="M123.17,112a6.81,6.81,0,0,0-3.88.59c-1.14.69-1.75,2.4-.85,3.38s2.49.6,3.83.56a4.26,4.26,0,0,0,2.08-.29,1.88,1.88,0,0,0,.71-2.13,2.83,2.83,0,0,0-1.66-1.66C123,112.25,122.4,112.21,123.17,112Z"/><path class="cls-4" d="M116.93,118.28a7.19,7.19,0,0,1-1.17,1,1.6,1.6,0,0,0-.68,1.34,1.88,1.88,0,0,0,.28.67,5.08,5.08,0,0,0,3.3,2.53,2.74,2.74,0,0,0,3.19-2.12,3.1,3.1,0,0,0-1.4-2.64A4.68,4.68,0,0,0,116.93,118.28Z"/><path class="cls-4" d="M112.86,116.62a7.25,7.25,0,0,0-2.75.08,2.5,2.5,0,0,0-1.86,1.85,2.23,2.23,0,0,0,1.39,2.27,3.39,3.39,0,0,0,2.78-.2,7.51,7.51,0,0,0,2.2-1.81c.52-.58,1-1.35.76-2.07a1.52,1.52,0,0,0-1.18-.87A1.1,1.1,0,0,0,112.86,116.62Z"/><path class="cls-4" d="M143,106.69c-1.26-.2-2.55,0-3.82-.16a3.74,3.74,0,0,1-3.13-1.88,3.9,3.9,0,0,1-.21-2,4.16,4.16,0,0,1,.41-1.59,3.94,3.94,0,0,1,1.67-1.51,3.81,3.81,0,0,1,3.05-.45,3.33,3.33,0,0,1,1.8,2,13,13,0,0,1,.56,2.71,4.17,4.17,0,0,1,.06,1.45C143.28,105.81,143,106.27,143,106.69Z"/><path class="cls-4" d="M146.78,104.51a14.94,14.94,0,0,1-1.09-5.11,1.62,1.62,0,0,1,.35-1.26,1.64,1.64,0,0,1,.78-.32,9.67,9.67,0,0,1,2.34-.16,3,3,0,0,1,1.9.63,3.54,3.54,0,0,1,.81,2.34,2.41,2.41,0,0,1-.28,1.72,2.53,2.53,0,0,1-.59.49,3.39,3.39,0,0,1-1.62.7A3.08,3.08,0,0,0,146.78,104.51Z"/><path class="cls-4" d="M147.45,108.3c1.12-2,3.35-3,5.43-3.81a.65.65,0,0,1,.45-.07.62.62,0,0,1,.3.28,7.61,7.61,0,0,1,.78,4.7,2.54,2.54,0,0,1-.63,1.83,2,2,0,0,1-1.25.39,8.52,8.52,0,0,1-3.88-1.21,2.07,2.07,0,0,1-.83-.62C147.53,109.32,147.69,108.64,147.45,108.3Z"/><path class="cls-4" d="M146.64,110.47a4.13,4.13,0,0,1-.8,5.58,2.71,2.71,0,0,1-.65.4c-1.07.45-2.27-.07-3.31-.58a2.63,2.63,0,0,1-1.28-1,2.59,2.59,0,0,1,.44-2.38,8.57,8.57,0,0,1,1.44-2,3.26,3.26,0,0,1,2.2-1A2.73,2.73,0,0,1,146.64,110.47Z"/><path class="cls-4" d="M140.17,108.31a2.19,2.19,0,0,0-3.36,2.53,1.48,1.48,0,0,0,.76.85,2,2,0,0,0,1.06,0,5.2,5.2,0,0,0,3.63-1.95.82.82,0,0,0,.17-.55.9.9,0,0,0-.37-.53A2.17,2.17,0,0,0,140.17,108.31Z"/><path class="cls-4" d="M160.67,124.81a5,5,0,0,1-2.23-1.21,4.89,4.89,0,0,1-.92-2.49,2.33,2.33,0,0,1,0-1,2.16,2.16,0,0,1,.34-.61,7.33,7.33,0,0,1,1.73-1.65,2.55,2.55,0,0,1,2.2-.51,2.59,2.59,0,0,1,1.43,2.19C163.45,121.14,163,123,160.67,124.81Z"/><path class="cls-4" d="M165.05,124.57a8.37,8.37,0,0,1-.07-4.88,2.32,2.32,0,0,1,1-1.48,2.1,2.1,0,0,1,.82-.2,3.37,3.37,0,0,1,1.66.25,3.31,3.31,0,0,1,1.61,1.87,9.5,9.5,0,0,1,.5,2.48,1,1,0,0,1-.06.59.93.93,0,0,1-.35.3C168.9,124.21,167.31,124.31,165.05,124.57Z"/><path class="cls-4" d="M166.86,127a5.19,5.19,0,0,0-1.9.58,1.81,1.81,0,0,0-.94,1.64,2.54,2.54,0,0,0,.48,1.09c.78,1.24,1.77,2.61,3.23,2.73a4.18,4.18,0,0,0,1.56-.25,4.78,4.78,0,0,0,1.83-1,3.8,3.8,0,0,0,1.07-3.16,2.65,2.65,0,0,0-1.28-2.22,3,3,0,0,0-2.19,0A7.56,7.56,0,0,1,166.86,127Z"/><path class="cls-4" d="M162,129a15.34,15.34,0,0,0,1.34,2.49,2.52,2.52,0,0,1,0,2.68,3,3,0,0,1-.82.63,3.51,3.51,0,0,1-2,.71,3,3,0,0,1-2.46-3.18,7.08,7.08,0,0,1,.69-1.34c.4-.78.52-1.75,1.19-2.32S161.73,128.21,162,129Z"/><path class="cls-4" d="M158.08,126.45a7,7,0,0,0-2.06-.71,2.38,2.38,0,0,0-2,.62,3.36,3.36,0,0,0-.65,2.37,1.42,1.42,0,0,0,.08.54,1.16,1.16,0,0,0,.79.6c1.4.4,2.84-.47,4-1.4a2.57,2.57,0,0,0,.7-.77,1,1,0,0,0,0-1A.8.8,0,0,0,158.08,126.45Z"/><path class="cls-4" d="M189.17,108.93a8.14,8.14,0,0,1-2.74-.26,2.84,2.84,0,0,1-1.93-1.82c-.32-1.19.44-2.38,1.23-3.32s2.05-2.09,3.4-2a3.2,3.2,0,0,1,2.55,2.53,3.8,3.8,0,0,1-.21,2.51A7.36,7.36,0,0,1,189.17,108.93Z"/><path class="cls-4" d="M188.77,112c-1.13.29-2.37.12-3.44.58a3.57,3.57,0,0,0-2,3.37,4.54,4.54,0,0,0,2,3.48,1.6,1.6,0,0,0,.78.33,1.7,1.7,0,0,0,.76-.18,7.54,7.54,0,0,0,2.77-2,4.48,4.48,0,0,0,1.18-2.75,2.83,2.83,0,0,0-1.38-2.55C189.2,112.24,188.76,112.28,188.77,112Z"/><path class="cls-4" d="M192.68,114.77a18.73,18.73,0,0,0-.7,4.34,1.28,1.28,0,0,0,.11.7c.24.41.8.45,1.28.43,1.59-.08,3.38-.43,4.23-1.77a4.94,4.94,0,0,0,.52-2.87,1.37,1.37,0,0,0-.2-.8,1.3,1.3,0,0,0-.69-.42,5.79,5.79,0,0,0-3.79.07C192.92,114.63,192.28,114.88,192.68,114.77Z"/></g></g></g></svg>