<svg xmlns="http://www.w3.org/2000/svg" viewBox="0 0 165.57 143.94"><defs><style>.cls-1{fill:#f5c82e;}.cls-2{fill:#e22915;}</style></defs><g id="Ebene_2" data-name="Ebene 2"><g id="Ebene_1-2" data-name="Ebene 1"><path class="cls-1" d="M49,22.52c-12.19-7-30,.31-33.87,13.83-2.7,9.56.9,20-1.45,29.64C10.5,79.07-3.21,90.29.69,103.17c1.79,5.9,7,10.08,12.19,13.38a98.73,98.73,0,0,0,44.66,14.87c11.66.93,24-.1,34.43,5.21,3.83,2,7.27,4.71,11.32,6.15,9.7,3.46,20.42-1.37,28.62-7.59,30.83-23.4,41.75-69.52,24.69-104.26C148.92,15.3,133.19,1.06,116,4.08c-6.64,1.17-12.55,4.78-18.6,7.75C81.64,19.6,61.93,29.94,49,22.52Z"/><path class="cls-2" d="M101.74,38.34c.67-.68,1.38-1.55,1.19-2.21-.75-2.71-3.89-5.07-6.26-6.35-.84-.45-2.72,1.65-3.21,2.14-.09.09-.53.56-1,1.11,0-.25-.1-.42-.6-.46-1.08-.1-3.31,2.8-3.89,3.51-2.17,2.62-6.59,6.4-6.49,10.13,0,.22.06.31.28.28,3-.53,6.12-.89,9.2-1.17,2.6-.24,6-.88,8.57-.34,1.66.35,5.62-3.95,5.8-5.49C105.44,38.46,103.83,38.23,101.74,38.34ZM86.85,41c-.78-.7,3.24-5,4.48-6.41-.12.25-.14.45,0,.52a16.75,16.75,0,0,1,3.5,2.77c.39.39.75.8,1.11,1.22-1.23.23-2.2.44-2.56.5C92.76,39.74,87.25,41.38,86.85,41Z"/><path class="cls-2" d="M165.14,95.44q0-.34-.3-.3c-5.33,1.76-10.86,1.78-16.41,1.57,1.11-1.1,2-2.38,2-3-.07-8.86.85-17.83.71-26.71,2.77-.27,5.54-.48,8.33-.53,2,0,6.72-6.6,6-6.69-6.89-.86-5.84-11.27-5.63-16.22A109,109,0,0,1,165.46,14c.31-.94-2.59,1.2-2.68,1.28a10,10,0,0,0-3.09,3.89c-.46,1.33-.9,2.67-1.33,4a14.19,14.19,0,0,0-3,.56,23.41,23.41,0,0,1-4.61.79,4.69,4.69,0,0,0-2.64,1.67c0-.11.05-.21.07-.32.37-1.53.69-3.07,1.06-4.6.27-1.1.54-2.19.88-3.27a20.79,20.79,0,0,1,.7-2,7,7,0,0,0,2-2.47c.16-.46,1-1.77-.25-1.15a13.64,13.64,0,0,0-2.32,1.47c-4.4,2.2-11.4.47-15.8-.13-1.12-.15-3.08,2.09-4.25,3.82a26.34,26.34,0,0,1-.78-3c-.75-4,.17-8.48-.92-12.33,0-.13-.24-.06-.54.12.08-.69.16-1.38.26-2.06.13-.84-2.1,1-2.2,1.06a14.57,14.57,0,0,0-1.75,1.85,3.15,3.15,0,0,0-.79,1.35,2,2,0,0,1,0,.24c-6.6,1.62-12.63,5.15-19.48,6.14a3.28,3.28,0,0,0-1.47.75c-.65-1.09-1.29-2.2-1.89-3.33-.11-.2-1.78.86-3.24,2.14,0-.1,0-.2,0-.3-.1-1.25-5.71,4.38-6.15,5.19C87.67,22,81.84,27.45,77.42,33.69A7.47,7.47,0,0,0,74,33.57c-1.33.19-5.23,2.29-6.34,1.87-.86.41-1.1.29-.71-.34.31-.81.58-1.64.81-2.48a30.73,30.73,0,0,0,.9-4.76,36.32,36.32,0,0,0,.15-6.68,40.87,40.87,0,0,0,16.51-.64c1.43-.32,2.79-1.91,3.72-3,.2-.22,2-2.74,1.23-2.56a36.94,36.94,0,0,1-9.87,1.07c-3.64-.2-7.07-1.62-10.72-1.19A4.4,4.4,0,0,0,68,16a28.17,28.17,0,0,0-3.2-8c-.28-.47-6.07,3.9-5.27,5.27a24.38,24.38,0,0,1,2.74,7.05c-3.4,1.52-6.7,2.21-10.36,1-2.69-.86-4.68-3-7.45-3.15-.24-2.34-.47-4.67-.49-7,0-.24-5,2.78-5.09,4.56,0,2.25,0,4.48.17,6.7-.33.5-.46.9-.26,1.08s.22.16.33.25A61,61,0,0,1,39,35.51c-.23,1.63-.54,3.24-.89,4.84a22.6,22.6,0,0,1-5.35-1.16c-2-.78-3.42-2.44-5.63-2.18a3.54,3.54,0,0,0-1.3.67,78.81,78.81,0,0,0,.68-9.88c0-1.08-2.55,1.15-2.75,1.32-.9.78-3.14,2.61-3.17,4-.31,14.9-5.59,28.33-11,42-.82,2.1,2.66-.72,3-1,2.48-2.26,9.76-2.59,13-3.15,4.72-.82,9.48-1.44,14.25-1.83a97.57,97.57,0,0,1,9.81-.24,14.26,14.26,0,0,0-1.83,1.36c-.92.79-3.18,2.65-3.22,4-.14,5.52-1,11-1.34,16.47-.19,2.73-.78,7.09-.15,10.54-3.24.2-6.63,1.33-9.59,1.81-1.21.2-2.43.35-3.64.5,1.27-1.09,2.52-2.42,2.44-3C31,90.31,33,79.78,34.55,69.68c0,.06-4.69,2.61-5,4.47-1,6-2.16,12-2.57,18.12-.24,3.54-1.11,8.1-.11,11.69a44.73,44.73,0,0,0-8.53,1.69c-1.62.53-3.92,4.54-4.12,4.6.43-.12.85-.22,1.27-.31A4,4,0,0,0,14,112a31.45,31.45,0,0,1-3.48,11.29c-.83,1.45,2.53-1.11,2.75-1.33-1.27,1.28,1.8-.34,2.49-.52a30.68,30.68,0,0,1,3.45-.59c2.39-.31,4.81-.41,7.21-.57,6.15-.41,12-.74,18.17-.75a1.45,1.45,0,0,0,.63-.27.26.26,0,0,0,.16,0c7.77-.83,15.76.07,23.59-.19,8.23-.27,16.3-.43,24.51-1.26,15.06-1.54,30.68-2.63,45.79-2,1.34.06,7.05-6,6.18-6.53a9.48,9.48,0,0,0-2.39-1,4.13,4.13,0,0,0,.83-1.59,9.42,9.42,0,0,0-.51-4.77c2.66.18,5.32.32,8,.24,1.19,0,6.29-1.41,7.11-.89,1.49,1-.21,5.71-.27,7.39,0,1,0,2,0,2.94a22.61,22.61,0,0,1-2.73,0c-3.61-.13-7.43-1.21-10.78.53-.78.4-5.46,5.12-4.43,5.24a88.83,88.83,0,0,0,9.93.12c3.13,0,5.93-.31,8.5-2.21,2-1.48,4.29-3.66,5-6.09.56-1.84.17-3.83.22-5.72A45.74,45.74,0,0,1,165.14,95.44ZM43.51,108.11a19.55,19.55,0,0,0-1.77,2c-.43.57-1.31,1.47-1.3,2.22,0,.35,0,.7,0,1-1,.13-2,.28-2.84.38-3.66.43-7.35.7-11,1.16-4,.52-7.69,1.33-10.84,3.24a37.55,37.55,0,0,0,2.55-8.69c3-.34,6-.27,9.12-.5,5.23-.38,10.47-1.1,15.7-1.54a1.39,1.39,0,0,0,.54-.24C43.42,107.66,43.3,108,43.51,108.11ZM150.19,29.74c1.56-.31,3.17-.12,4.62-.77a8.27,8.27,0,0,0,2.29-1.75,102,102,0,0,0-4.47,24.54,29.93,29.93,0,0,0,.5,8.42c-6.14.57-12.29,1.51-18.36,2-6.48.55-14.65.21-19.78,4.68,0-2.64.09-5.29.11-7.93,1.22.12,2.43.27,3.64.49a1.19,1.19,0,0,0,.71-.16,27.94,27.94,0,0,0,2,2.53c.63.68,4-2.6,5-4.42,7.92-.51,18.52-.93,18.67-10.85a83.36,83.36,0,0,1,2-16.19C148.19,30.18,149.19,29.94,150.19,29.74Zm-20.65,3.71c1.22,0,6.87-5.11,6-6.29a34.78,34.78,0,0,1-4.44-7.44c5.25.8,10.27,1.4,15-.6a38.86,38.86,0,0,0-3,8.16c-1.09,4.07-2.29,8.12-3.11,12.25a82,82,0,0,0-1.3,9.1c0,.46-.1.93-.16,1.42-.88,0-1.75,0-2.51,0a22.58,22.58,0,0,0-7.74,1.65,8.71,8.71,0,0,0-2.19,2c-1.35-3.83-3.56-7.49-5.28-11.11-1.31-2.76-2.53-5.56-3.88-8.3A80.44,80.44,0,0,1,129.54,33.45ZM122,8.71l0,0c-1.6,6.09-.88,13.88,2.54,19.56-1.89.24-3.77.5-5.66.8-1.23.19-2.52,1.55-3.42,2.58-.19-.35-.37-.72-.58-1.07-3.17-5.48-7-10.55-10.38-15.86C110.43,13.17,116.16,10.65,122,8.71ZM43.18,39.39A63.52,63.52,0,0,0,45,26.45a23.56,23.56,0,0,0,3.6.74,18.42,18.42,0,0,0,10.08-2.07,10.74,10.74,0,0,0,3.7-3.33l.15-.22a35.44,35.44,0,0,1-2.67,20.22c-.06.12-.42,1,.18.85a74.32,74.32,0,0,1,13.1-2.78c-2.35,3.41-4.68,6.85-7,10.29A.21.21,0,0,0,66,50c-3.67-2.26-10.11-1.75-14.28-1.32-4.58.47-8.89,2.11-13.48,2.41A31.37,31.37,0,0,0,43.18,39.39Zm-1.3,22.72c-8.11,1-17.83,2-25.17,6.3a124.74,124.74,0,0,0,8.08-24.82,14.31,14.31,0,0,0,3.63,1.31,47.15,47.15,0,0,0,6.6.77c.6,0,1.36-.54,2-1.21-.38,1.63-1.36,7.23-2.12,7.82S29.43,58,30.71,58.05c4.7.18,9.08-1.53,13.71-2,5.25-.57,10.48.85,15.66.22.64-.08,2.85-2,4.42-3.65-1.18,1.78-2.37,3.55-3.53,5.33-1,1.55-.28,1.27.88.88,1.59-.53,3.5-3,4.4-4.4,6-9.06,12.22-17.95,18.56-26.76,2.45-3.41,5.43-6.29,8.09-9.53.79-1,1.91-2.21,2.84-3.56,3.9,7.65,9,14.6,12.88,22.26,2.37,4.67,4.26,10.1,6.64,15.14-5.38,0-11.07.94-15.88,1.16-10.7.48-21.33,1.75-32,2-1.79,0-4.57,4.26-5.29,5.65A130.16,130.16,0,0,0,41.88,62.11Zm68.19,36.76-5,.06a2.09,2.09,0,0,0,.47-.88c.21-6.12-1.1-12.26-1.3-18.39a143.62,143.62,0,0,1,.61-18c0-.05-5.15,2.82-5.34,4.78a160.33,160.33,0,0,0-.84,19.1c0,.69,0,1.4,0,2.12-1.08.1-2.17.26-3.2.34a38.38,38.38,0,0,0,1-14.51c-.28-2.87-.54-6-1.74-8.6a4.24,4.24,0,0,0-2.71-2.64c-1.55-.34-3,.54-4.1,1.5a13.47,13.47,0,0,0-3.48,4.42,11.94,11.94,0,0,0-1,4.9c-.16,5.18-.7,10.52.59,15.6.07.26,1.42-.92,1.51-1,.31-.31,1.13-1,1-1.51-1-4-.67-8.24-.47-12.36.08-1.77,0-3.61.2-5.36a8,8,0,0,1,.54-2,7.77,7.77,0,0,1,.4-.82,2.21,2.21,0,0,1,.35-.46c5.27-2.55,6,8.12,6.27,11.13a43.91,43.91,0,0,1,.12,7.16c-.1,1.55-.35,3.07-.6,4.59l-2.13,0a43.43,43.43,0,0,0,0-4.84c0-1.92-.12-3.83-.2-5.75-.16-3.92-.32-7.85-.3-11.78,0-.41-1,.44-1.06.51-.34.3-1.22,1-1.23,1.54,0,4,.14,8,.27,12,.07,2,.13,4,.15,6,0,.75,0,1.53,0,2.31a22.79,22.79,0,0,0-4.56.65A7.17,7.17,0,0,0,81.27,91c-.18-9.84-1.36-19.81-1.62-29.62,7.3-.63,14.52,1.39,21.83,1,.66,0,3-1.93,4.47-3.58,2-.08,4.07-.1,6.09,0-1.32,1-2.56,2.23-2.57,3.17,0,7.44-.44,14.88-.38,22.33A81.49,81.49,0,0,0,110.07,98.87ZM99.62,99c-1.72,0-3.43,0-5.15.06-4.4,0-8.86.08-13.34.16.1-1.76.14-3.53.15-5.31a38.13,38.13,0,0,1,7.25-.06,74.32,74.32,0,0,0,9.19-.35,2.56,2.56,0,0,0,1.07-.61A35,35,0,0,0,99.62,99ZM74.84,62.8c-.2-.07-.4-.12-.61-.18,0-.66,0-1.32.07-2l2.49-.16A5.19,5.19,0,0,0,74.84,62.8Zm.84,36.55c-.73,0-1.47,0-2.2.06,1-11.71.37-23.55.71-35.33a7.21,7.21,0,0,0,.62-1c0,6.94.21,13.87.42,20.8C75.38,89,75.28,94.23,75.68,99.35Zm-6-38.44a1.45,1.45,0,0,0-.13.47s0,.08,0,.12c-1-.18-2.06-.32-3.11-.44Zm-20,23.3c.26-5.11.86-10.21,1-15.33h0c6.05.14,12.08.56,18.16.41a1.49,1.49,0,0,0,.18,0c-.81,10-1.71,20.46-.87,30.38-6.1.29-12.16.73-18.12,1.5-.1,0-.21.06-.31.08a3.74,3.74,0,0,0,.79-1.41C50.68,94.65,49.36,89.47,49.62,84.21Zm22.34,25-.57.78a3.59,3.59,0,0,0-.57,1.16c.09.5.17,1,.26,1.5-6.8.16-13.65-.16-20.36.61a3.83,3.83,0,0,0-1.83.94,6.64,6.64,0,0,0-1.9-.79c.09-.15.19-.3.27-.45a11.92,11.92,0,0,0,1-5.47A151.83,151.83,0,0,1,66,106.91c2.78,0,5.55-.07,8.32-.18A18.16,18.16,0,0,0,72,109.19Zm32-1.41c-.39.52-1.25,1.4-1.22,2.08,0,.08,0,.16,0,.23-.57.06-1.14.11-1.7.18-8.15.93-16.27,1.44-24.44,2.09l-1.6.1a16.21,16.21,0,0,0,1.53-1.68,4.4,4.4,0,0,0,1-1.74,16,16,0,0,0,.17-2.47c3.14-.14,6.29-.28,9.43-.33,6.16-.11,12.33-.21,18.49-.34A18.75,18.75,0,0,0,103.93,107.78ZM136.08,105c.18.89.38,1.78.58,2.66-3.83.11-7.84.73-10.76.8-6,.14-11.93.51-17.87,1,.16-.19.34-.37.49-.57a4.78,4.78,0,0,0,1.09-1.85c.08-.44.13-.88.18-1.31q10.75-.22,21.5-.59c.92,0,2.82-2,4.3-3.75.89,0,1.77.06,2.66.11C137.34,102.47,135.85,103.9,136.08,105Zm3.41-8.64c-.75,0-1.77.95-2.64,2l-.53-.14A7.79,7.79,0,0,0,138.13,96c1.63-8.29.9-17.94,1-26.4,0-.22-5.56,3-5.59,5-.07,4.74-.28,9.46-.6,14.18a74.69,74.69,0,0,0-.54,9c-4.88-.16-10.05.92-14.75,1h-1.2c-.49-6.93-1.43-13.72-1.51-20.7,0-2.69,0-5.38,0-8.07,2.07-.39,5.26-.18,6.74-.36,4.12-.52,8.22-.75,12.36-1,5.19-.3,10.35-1,15.52-1.54-1.58,1-3.76,2.79-3.77,4-.08,6.28-1.32,12.44-1.67,18.7-.08,1.4-.7,4.56-.33,6.71C142.36,96.45,140.92,96.4,139.49,96.4Z"/><path class="cls-2" d="M66.5,89.83c-.07-1.21-.29-2.41-.4-3.62a16.05,16.05,0,0,0-1-4.65,27.43,27.43,0,0,0-2.68-4.36,6.67,6.67,0,0,1-1.15-2.87c-.11-1,0-2-.19-3-.1-.58-2.27,1.68-2.44,1.93a11,11,0,0,0-1.4,3.3c-.14.54-.26,1.1-.43,1.64-.11.35-.28.7-.38,1l0,.08a7.55,7.55,0,0,0-2.84,4.64,1,1,0,0,0-.29.56,91.93,91.93,0,0,1-.06,10,.5.5,0,0,1,0,.12l.13,0c.33.1.86-.43,1.06-.62a5.59,5.59,0,0,0,1.18-1.39A5.73,5.73,0,0,0,56,90c0-.85,0-1.69,0-2.54-.07-1.71-.15-3.43-.15-5.15,0-.11-.07-.14-.17-.11,0-.16.06-.32.1-.48s.21-.55.29-.84c0-.11.1-.21.16-.32-.18.13-.18.12,0,0a17.3,17.3,0,0,0,2.49-2.71,3.18,3.18,0,0,0,.16-.32,5.27,5.27,0,0,0,.27,1.16,28.4,28.4,0,0,0,2.29,4.1c.1.17.18.35.26.52h-.26c-.77,0-1.54,0-2.31,0-.24,0-.66.36-.81.48a8.47,8.47,0,0,0-1.11,1.05,4.12,4.12,0,0,0-.71,1c-.06.13-.16.36.07.36a16.08,16.08,0,0,0,4.94-.41,2.67,2.67,0,0,0,.91-.57,32.32,32.32,0,0,1,.91,5.22,19.15,19.15,0,0,1,.23,3.38,16.49,16.49,0,0,1-3.12-.3,1,1,0,0,0,.18-.37,15.66,15.66,0,0,0,0-3.49,11.77,11.77,0,0,1,.2-3.35c0-.21-.24-.09-.3-.06a3.66,3.66,0,0,0-.81.59,7.74,7.74,0,0,0-.88.93,1.94,1.94,0,0,0-.4.68,11.35,11.35,0,0,0-.14,3.29c0,.52.08,1,.13,1.56a7.64,7.64,0,0,0-1.51.07c-.68.11-1.37,1-1.79,1.43-.15.16-1,1.15-.59,1.24,2.34.44,5.3,1.28,7.66.58a7.32,7.32,0,0,0,3.63-3A5.62,5.62,0,0,0,66.5,89.83Z"/><path class="cls-2" d="M131.51,78.55a7.42,7.42,0,0,0-1.19-3.64c-.84-1.42-1.74-2.81-2.62-4.21-.08-.13-.52.18-.53.19a14.65,14.65,0,0,0-3.13,3,4.94,4.94,0,0,0-.59.71h0c-.37.27-.73.56-1.09.85-1.37,1.12-3.68,3-2.92,5,.1.26,1.31-.84,1.4-.93.25-.25,1.1-1,.93-1.4a1.62,1.62,0,0,1-.13-.92c0-.06,0-.1,0-.14.39-.25.78-.63,1.12-.9a14.33,14.33,0,0,0,1.82-1.75c.2-.23.53-.67.81-1,.7,1.07,1.39,2.15,2.07,3.23a8.3,8.3,0,0,1,1.58,3.24c.26,2.1-.47,4.24-.46,6.36a23.52,23.52,0,0,1-.08,2.91,4.06,4.06,0,0,1-.16.69,2.49,2.49,0,0,1-.47.12,8.24,8.24,0,0,1-2.43-.09s0,0,0,0a11,11,0,0,0,.15-2.07l.06-1.86a28.71,28.71,0,0,1,.32-3.46,7.5,7.5,0,0,0,1-.14,3.18,3.18,0,0,0,1.33-1c.08-.08.92-1.08.72-1.14a5.52,5.52,0,0,0-1.21-.17l-1.27-.08a23.66,23.66,0,0,1-2.65-.32l-.11,0a.75.75,0,0,0-.54.19,5.53,5.53,0,0,0-.94.8,5.94,5.94,0,0,0-.8.94l-.1.17c0-.23,0-.46,0-.69,0-.45-1.08.48-1.16.56a7.66,7.66,0,0,0-.92,1c-.14.19-.41.47-.42.71,0,1.29,0,2.59-.15,3.88,0,.63-.11,1.27-.19,1.9,0,.32-.1.64-.14,1s-.13.57,0,.76.92-.52,1-.57a5.23,5.23,0,0,0,1.1-1.29,6,6,0,0,0,.54-2.1c.08-.63.15-1.26.19-1.9.07-.93.1-1.87.12-2.81a16.85,16.85,0,0,0,2.64.41c.39,0,.79,0,1.19,0l-.21.17a6.27,6.27,0,0,0-.83.88,1.68,1.68,0,0,0-.38.64,31,31,0,0,0-.39,3.85q0,.78,0,1.56a5.54,5.54,0,0,0-2.2.23A4,4,0,0,0,119.63,91c-.08.09-.85,1.1-.5,1,2.62-.41,5.32.92,7.88-.16a6.82,6.82,0,0,0,4-6c.05-1.17-.07-2.34,0-3.51A36.69,36.69,0,0,0,131.51,78.55Z"/></g></g></svg>