<svg xmlns="http://www.w3.org/2000/svg" viewBox="0 0 188.69 160.35"><defs><style>.cls-1{fill:#f5c82e;}.cls-2{fill:#e22915;}</style></defs><g id="Ebene_2" data-name="Ebene 2"><g id="Ebene_1-2" data-name="Ebene 1"><path class="cls-1" d="M99.36,20.35C90.17,10,73.43,11.45,60.71,16.9c-16.93,7.25-31.1,19.8-43.15,33.72C10.3,59,3.54,68.31,1.05,79.12c-2.82,12.27.26,25.39,6.55,36.3s15.58,19.8,25.57,27.45c12.17,9.32,26.35,17.25,41.69,17.48,12.82.19,25-5,37.22-8.93,15.36-5,31.56-8.17,45.35-16.55s25-23.77,22.45-39.71c-1.37-8.57-6.44-16-11.62-23-11.47-15.42-25-30.54-43.1-37C116,31.92,106.75,28.67,99.36,20.35Z"/><path class="cls-2" d="M121.93,76.44c-4.64-.89-9.75,3.29-12.57,5.83a30.69,30.69,0,0,0-7.91,11c-.28.66,2.23-.86,2.32-.92a7.75,7.75,0,0,0,2.67-2.8,21.85,21.85,0,0,1,3.77-6.19c1.86-2.1,4.45-2.53,7.35-3.1C118.52,80.1,122.28,76.51,121.93,76.44Z"/><path class="cls-2" d="M43.71,118.52l-.14.08-.23.11a8.4,8.4,0,0,0-1.69,1.21,12.49,12.49,0,0,0-2.75,3.43c-.09.18-.25.59.12.56a2.36,2.36,0,0,0,1.06-.44.81.81,0,0,0,.15.54c.13.2.83-.28.84-.29a9.09,9.09,0,0,0,1.22-1,11.07,11.07,0,0,0,1.19-1.28,3.86,3.86,0,0,0,.6-1l.07-.09a1.45,1.45,0,0,0,.31-.65.15.15,0,0,0-.17-.17c.07-.37.14-.74.24-1.09S44,118.36,43.71,118.52Z"/><path class="cls-2" d="M156.12,91.35a4.16,4.16,0,0,1-.69.12,1,1,0,0,0-.26.1c-1.18.06-2.35.15-3.53.23a4.15,4.15,0,0,0,1-1.61c.37-8.86-5.35-17.13-11.6-21.87a26.85,26.85,0,0,0-6.94-3.84c3.53-3.84,3.83-8.24,3.84-13.69,0-.44-.37-.24-.6-.14-7.52,3.2-15.7,2.65-23.57,3.64a54.09,54.09,0,0,1-10.71.57c-4.11-.27-8.23-.62-12.21.78a7.62,7.62,0,0,0-3,2.66c-.16.2-1.66,2.44-1,2.3s1.5-.25,2.24-.34a5.34,5.34,0,0,0-1.42,2.37c-.33,1.75-1,3.54.34,4.84,1.64,1.66,6.12,1.38,8.1,1.46,4.21.16,8.37.24,12.54.19a57.57,57.57,0,0,0-21.08,26.5c-.47,1.24,1,0,1.27-.19a8.42,8.42,0,0,0,2.61-3.26c5.29-13.43,17.92-24.37,31.45-23.4,6.16.44,12.08,3.91,16.52,8.61,4.16,4.39,5.86,9.32,7.92,14.79-8.63.83-17.28,2.11-25.9,2.77-11.59.88-23.18,1.35-34.78,2-7.16.42-14.3,1.24-21.43,2.16.93-.93,1.85-2,1.86-2.53.27-9.31-.45-18.88-.59-28.22a183.56,183.56,0,0,0-1.2-20.46c1.73-1.82,3.25-3.67,2.76-3.82a5.77,5.77,0,0,0-3.31.1c-.1-.59-.19-1.19-.3-1.78,0,.11-3.46,2.28-4,3.82l-.52.32a5.48,5.48,0,0,0,.48-.74c0-.08.17-.3.3-.55,1-.74,3.1-2.91,3.29-3.68,1.35-5.31-.16-10.86,0-16.32,3.53-.14,7-.26,10.53-.48a2.48,2.48,0,0,0,0,1.15.72.72,0,0,0,.73-.11c.35-.17.69-.35,1-.55,0,.1.11.14.29.09a8.13,8.13,0,0,0,1.84-.86c1.55-.14,3.1-.31,4.66-.51a7.52,7.52,0,0,0-.54,1.46c-.15.65.92,0,1.55-.38-.09.83,1.65-.41,2-.66s.84-.68,1.27-1.06h.09c1.41-.25,2.87-2.23,3.76-3.36.21-.27,2.12-3,1.24-2.91l-1.76.27c.51-.66.8-1.17.55-1.26a3,3,0,0,0-2.44.49c-.16-.06-.51.09-.88.29.23-.54.35-1.18-.5-.68s-1.64.93-2.46,1.39a.55.55,0,0,0,0-.38,1,1,0,0,0,0-.16c.09-.59.25-1.06-.62-.62a14.55,14.55,0,0,0-3.29,2.31c.21-.29.43-.57.62-.87a.91.91,0,0,1-.16.11c.22-.3.42-.56.52-.73.86-1.47-1.28-.25-1.63,0a17.29,17.29,0,0,0-2.12,1.82c-4.84.43-9.7.36-14.54.82-1.2.11-2.4.26-3.6.41.15-.23.23-.41.15-.48-1.79-1.68-4-3-5.41-5a14.24,14.24,0,0,1-1.8-2.93,4.28,4.28,0,0,1-.34-1.26,7.87,7.87,0,0,0,3.69-3.54,5.74,5.74,0,0,0,0-5.43c-1.25-1.93-4.1-1.93-6-1.24a2.84,2.84,0,0,0-1.09.86c.08-.17.07-.29-.19-.19a4.22,4.22,0,0,0-1.4,1.26C46.44,4,44.73,6.1,45.65,8.43c.78,2,3.17,2.86,5.14,2.73l.19,0a6.8,6.8,0,0,0-.16,1,3.8,3.8,0,0,0,.29,1.49A13.35,13.35,0,0,0,53,16.71a22.1,22.1,0,0,0,4.21,4c-2.77.36-5.55.69-8.33.78-2.19.07-4.37,0-6.56,0,0-.09.06-.19.08-.28s0-.32,0-.53l.26-.47c.34-.66.07-.76-.32-.67.1-.4,0-.69-.66-.31l-.42.24a5.34,5.34,0,0,0,.42-1.1c.13-.54-.63-.23-.77-.16s-.52.3-.77.45a.31.31,0,0,0-.19-.13c.09-.35,0-.58-.69-.34a7.35,7.35,0,0,0-.76.34c.21-.81-.67-.46-1.24-.05l-.13.1L37,18.6c-.27-.35-2,.94-2,.93a27.57,27.57,0,0,0-2.66,2.38c-1.42.55-3.35,4.37-3.31,4.37l.26,0c0,.18.22.25.71,0l.28-.14c.12,0,.24,0,.36,0a1.14,1.14,0,0,0,.06.25c.11.23.75-.11,1.09-.32.94,0,1.88-.06,2.82,0h.14a3,3,0,0,0-.13.59c0,.25.07.35.32.32a6.18,6.18,0,0,0,1-.31c-.1.29-.07.49.2.46l.39,0a3.58,3.58,0,0,0,1.72-.91c2,.09,4,.21,6,.24,1.64,0,3.28,0,4.91-.13a14.52,14.52,0,0,0-5.22,8.63C42.49,44,52.24,46,58.19,45.48c.34,0,1.1-.74,1.87-1.59l.06.78A58.3,58.3,0,0,0,43.66,60.15C41,63.8,36,69.78,34.39,75.48c-10.67,3-19.46,15.15-21.75,26.82-.17.86,2-1,2.06-1.11a7.76,7.76,0,0,0,2.37-3.35c1.31-6.19,4-12.34,9.24-15.31a14.92,14.92,0,0,1,7.69-2,5.41,5.41,0,0,0,.12.55c0,.1.35-.12.8-.5a15,15,0,0,1,5,1.33c4.11,1.91,7.92,5.57,11,9.07a32.57,32.57,0,0,1,3.91,5.34c.72,1.23,1.31,2.6,2,3.9C43.24,102.1,29.68,104,16,103.94c-1.39,0-3.86,4.56-3.64,4.56,4.47.08,8.93,0,13.38-.22a9.4,9.4,0,0,0-1.6,2.45c-1,.75-2.68,2.06-2.91,3.12-2.27,10.69,8.64,18.75,17.36,17-.17.24-.34.54-.17.51,4.07-.76,8.22-1.25,12.33-1.77a49.1,49.1,0,0,0,11.35-2.31c.37-.14,1.67-1.72,1.45-1.72a11.33,11.33,0,0,0-2.36.64c-1,.24-1.93.47-2.92.63-2,.32-4,.61-6,.89-3.18.45-6.38.89-9.55,1.43,6.83-4.26,11-14.35,9.8-23,11.5-1.21,23-2.51,34.54-3q11.7-.51,23.38-1.31c-.34.4-.66.81-1,1.22l-.35.42c-.17.21-1.46,2-1.43,2.62l0,.06a2.34,2.34,0,0,0-.09.24,3.05,3.05,0,0,0-.35,1c-.74,4.6-.77,10.55,3,13.54,2.53,2,5.92,2,8.83,1h0c-.08.09-.78,1-.45.93,3.75-.19,7.61-.24,11.26-1.21a27.12,27.12,0,0,0,4.73-1.4,8.39,8.39,0,0,1,2.27-.84,11.69,11.69,0,0,0,2.68-.54c.2-.09,1.64-1.43,1.39-1.55a4,4,0,0,0-2.1.06,7.69,7.69,0,0,0-2.18.69,26.82,26.82,0,0,1-5,1.58,47.37,47.37,0,0,1-10,1.15,25.4,25.4,0,0,0,8.83-8.75c1.9-3,3.84-8.66,1.45-12,3.55-.35,7.1-.72,10.64-1.13,3.22-.38,6-.4,8.55-1.58h0v0a10.2,10.2,0,0,0,3.77-3.11C155,94,157,91.15,156.12,91.35ZM92.35,62.73a2.07,2.07,0,0,1-.72-2.66c.93,0,1.85,0,2.78,0a3.83,3.83,0,0,0-1.33,1.55h1.64c-.45.08-.9.14-1.34.23C93.12,61.85,92.69,62.31,92.35,62.73Zm5.41.44L96,63.65a13.55,13.55,0,0,1-2.17-.27c1.41-.09,2.82-.25,4.22-.43C98,63,97.9,63.07,97.76,63.17ZM106,64l-2.46,0c1-.1,1.93-.19,2.9-.26A1.37,1.37,0,0,0,106,64Zm12.36-4.94-2.13.41-2.68.05c1-.18,2-.36,3-.57l.1-.05c1.57-.11,3.13-.22,4.69-.37Zm10.92,3.1c-.65.23-1.32.46-2,.68a4.76,4.76,0,0,0,.47-.31l.19-.17c.5-.06,1-.16,1.49-.27Zm.76-2.1a5.82,5.82,0,0,0,1.32.07c-.62.14-1.24.27-1.85.44A6.38,6.38,0,0,0,130,60.07Zm2.61,2.24a.59.59,0,0,0,0,.13c-.61.11-1.27.24-1.35.24-.36,0-.72.06-1.08.08a6.54,6.54,0,0,0,1.17-.69,4.63,4.63,0,0,0,1.23-1.2l.26-.13A12.44,12.44,0,0,0,132.64,62.31Zm.53-3.68a10.91,10.91,0,0,1-1.4,0,3.87,3.87,0,0,0,.77-.73l.1-.13.11-.08a5.53,5.53,0,0,0,.51-.53A9.39,9.39,0,0,1,133.17,58.63ZM48,7.15a3.51,3.51,0,0,1-.46-3A6.1,6.1,0,0,1,49,1.92c0,.08,0,.15.06.16A23.85,23.85,0,0,0,51.41,2a4.2,4.2,0,0,1,2.34.7A4.32,4.32,0,0,1,55.1,7.12a5.33,5.33,0,0,1-.32,1.12,3,3,0,0,1-.18.36,3.22,3.22,0,0,1-.5.23,5.35,5.35,0,0,1-1.05.25A1.07,1.07,0,0,0,53,8.69c0-.1-.36.13-.72.45A5.14,5.14,0,0,1,48,7.15Zm2.12,30.21a8.45,8.45,0,0,1-1.9-7.26c.47-1.7,2.05-2.46,3.73-2.8-1.22,1.25-2.54,3.44-2.34,3.56,2.72,1.63,2.72,4.66,1.62,7.45A8,8,0,0,1,50.12,37.36ZM60,27.23a62.2,62.2,0,0,0-.14,12.89c-2.65-.5-5.54-.16-8-1.44a7.93,7.93,0,0,0,1.8-1.81c2.11-2.78,3.46-7.29.6-9.81h.49c.53,0,1.19-.62,1.81-1.4.95-.07,1.89-.14,2.84-.18l1.52-.07A4,4,0,0,0,60,27.23Zm-30.58,82a6.63,6.63,0,0,0-1,.74,15,15,0,0,0,.69-1.78.34.34,0,0,0,0-.09l2.57-.16c-.68.54-1.41,1.16-2.13,1.84A3.53,3.53,0,0,0,29.37,109.23Zm13,9.27a12.25,12.25,0,0,1-.41,1.41,8.18,8.18,0,0,1-5.81-.11l-.06,0a11.79,11.79,0,0,1-1.42-.91,13.25,13.25,0,0,1-4.09-5.27c-.06-1,.3-2.4-.61-1.69,0,0,0,0,0,0a27,27,0,0,0,2.87-4q3.9-.27,7.78-.63c-1,1.32-1.71,2.56-1.43,2.76.55.39,1.16.73,1.76,1.09A6.6,6.6,0,0,1,42.47,115,14.21,14.21,0,0,1,42.35,118.5Zm7.21-60.31A19,19,0,0,1,55,54.33c.58,3.34.17,6.4-2.94,8.24C50,63.8,47.77,64.77,45.66,66A17.11,17.11,0,0,1,49.56,58.19ZM61.85,74.77c-.08,5.61-.56,12.14,0,18.19-1.9-4.47-5.47-8.21-8.84-11.13-3.64-3.15-7.41-5.82-11.65-6.67,1.36-1.26,2.84-2.84,3.2-4.46.06-.27.12-.54.17-.81,7.43-3.6,15-9.91,15.5-17.85l.85-.37A181.43,181.43,0,0,1,61.85,74.77ZM124.57,109a11.15,11.15,0,0,0-1.19,1.55,2.75,2.75,0,0,1-1.51,1.71,14.85,14.85,0,0,0-1.55,1.7,12.62,12.62,0,0,1-2.25-.61,6.35,6.35,0,0,1-3.44-2.89c-.83-1.64-.48-3.47-.18-5.33a10.11,10.11,0,0,0,1.08-1.45l.22-.12a9,9,0,0,1,1.68-.41l.17,0a6.27,6.27,0,0,0-1.07,1.64c0,.12-.06.24-.1.36l-.14.19c-.17.27-.62.82-.45,1.18.29.61.69,1.14,1.36,1.13a2.08,2.08,0,0,0,1.1-.52,12.94,12.94,0,0,0,2.77-2.94c.15-.22.31-.45.45-.69a3.68,3.68,0,0,1,.58,0l.1,0c-.09.28-.1.51,0,.66a10.23,10.23,0,0,1,2.37,4.08C124.59,108.52,124.58,108.75,124.57,109Z"/><path class="cls-2" d="M187.31,71.92a2.73,2.73,0,0,0-2.37.42,6.89,6.89,0,0,0,.26-5.87l-.24,0c-2.14.46-3.8,2-5.28,3.65-.35.38-.68.78-1,1.18-.59-1.75-1.05-3.5-2.5-4.8-.86-.77-4,3.13-4.43,3.68a14,14,0,0,0-1.59,3c-3.62-1.29-7.39,3.24-9.29,6.59A18.81,18.81,0,0,0,159,86.11c-.37.4-.7.81-1,1.12s-2,2.66-1.16,2.53c1.45-.24,2.89-.52,4.33-.82,1.28-.22,2.61-1.88,3.42-2.84.19-.22,1.92-2.58,1.13-2.46l-.56.09c-1.54-.07-1-3.55-.77-4.59a6,6,0,0,1,.25-.79l.33.05a5.48,5.48,0,0,1,2,1.66c.71.8,4.06-3.19,4.4-3.64a11.83,11.83,0,0,0,1.17-2c.56,1.31.88,2.74,1.51,4.1.24.52,2.39-1.43,2.46-1.5a22.84,22.84,0,0,0,4.24-5.09,9.34,9.34,0,0,0,.69-1.38c-.21.65-.54,1.69-1,3.26a21.46,21.46,0,0,1-1.65,4.82c-.94,1.71,2.86-1.31,3.1-1.56l-.44.63c.92,0,1.37.35,1.36,1.11a1.34,1.34,0,0,0,0,.21A22,22,0,0,0,181,80.43a10.55,10.55,0,0,0-2.92,3.21c-.14.36-.82,1.66.21,1,3.51-2.13,7.45-4.88,9.43-8.71C188.28,74.8,188.89,72.61,187.31,71.92Z"/><path class="cls-2" d="M184.94,84.59c-1.06,0-4.86,3.67-4.4,4.85.27.69,1.59,1.84,2.35,2.91-.29.4-.55.8-.76,1.15l-.11,0A6.26,6.26,0,0,1,179.59,91c-.31-.44-1.65.73-2.65,1.72l.08-.08a1.1,1.1,0,0,1-1.11-.27c-.45-1.18-.7,0-.63-2.26,0-1-3.56,2.37-3.8,2.65,1.05-1.22-1.49-1.45-2.24-2-1.23-.86-5.87,5.13-5.3,5.53,2.27,1.59,4.38,1,6.26-.3.61,2.66,2.59,2.13,4.5.8,1.93,2.7,4,3.17,6.67,1A17.75,17.75,0,0,0,184.94,94a9.11,9.11,0,0,0,3.64-4.4C189.22,87.39,187,84.63,184.94,84.59Z"/><path class="cls-2" d="M70.06,124.78h0a3.74,3.74,0,0,1-1.66.19.46.46,0,0,0-.16.07.8.8,0,0,0-.21.15,3.78,3.78,0,0,0-.5.48,1.71,1.71,0,0,0-.32.44l0,.09s0,.08.07.07a4,4,0,0,0,.92,0,3.66,3.66,0,0,0,1-.31,1.83,1.83,0,0,0,.42-.31,3.41,3.41,0,0,0,.45-.48l.1-.14a.51.51,0,0,0,.1-.21C70.22,124.72,70.12,124.76,70.06,124.78Z"/><path class="cls-2" d="M157.67,114.15A24.69,24.69,0,0,0,153,115c-1.65.34-3.3.64-4.95.93-.42.07-.84.58-1.11.88-.06.07-.62.81-.37.76,1.65-.28,3.3-.58,4.94-.91s3.22-.83,4.86-1.08c.36,0,.73-.5.95-.76C157.42,114.74,157.91,114.15,157.67,114.15Z"/></g></g></svg>