<svg xmlns="http://www.w3.org/2000/svg" viewBox="0 0 199.99 155.91"><defs><style>.cls-1{fill:#f5c82e;}.cls-2{fill:#e22915;}</style></defs><g id="Ebene_2" data-name="Ebene 2"><g id="Ebene_1-2" data-name="Ebene 1"><path class="cls-1" d="M195.05,30.62C190.28,20,180.45,11,168.81,10.09c-7.63-.59-15,2.25-22.55,3.7-17.2,3.31-35.74-1-40.73-8.63C92.5-1.72,76.41-1.3,62.65,4s-25.44,15-35.3,25.88c-13,14.42-23.52,31.78-26.54,51s2.38,40.26,16.81,53.29A68.53,68.53,0,0,0,34.75,145c44.29,20.63,98.38,10.28,139.7-15.76,6.24-3.93,12.45-8.38,16.23-14.7,2.82-4.71,4.12-10.16,5.17-15.54a224.14,224.14,0,0,0,4-34.07C200.33,53.25,199.82,41.24,195.05,30.62Z"/><path class="cls-2" d="M162.48,73.1c-3.77-9.16-13.22-10.42-21.87-12-2.13-.39-6.18.69-8-.36-1.47-.87-.49-1.24-1-2.59A23.75,23.75,0,0,1,130,49.47c-.09-3.57-1.18-6.31-5-7.25-2.15-.53-6.29-.94-8.38-.1-4.26,1.71-7.07,7.88-7.4,12-.87,0-2,.21-2.63.21-2.21,0-4.41-.27-6.61-.22s-4.41.63-6.74.29c-1.88-.28-3.25-.77-5.18-.52-3.74.49-7.08,1.77-10.64-.41-2.59-1.59-1-6.77-1.88-9.8-.94-3.29-3.1-4.19-6.32-4.56-2.55-.29-5.09-.94-7.45.41a14.68,14.68,0,0,0-5.07,5.17c-1.8,3.28-1.83,7.78-3.77,10.91,0,.37.05.75.08,1.12l-2.23-.37a12.59,12.59,0,0,0-1.49-.17,27.45,27.45,0,0,0-5.66,1.14A23.83,23.83,0,0,0,34.09,62c-6.88,5.27-11.38,12.49-14.6,20.43A61.31,61.31,0,0,0,15.6,95.9c-.9,5.75-2.14,11.21-3.38,16.9-1.16,5.32-2.1,10.9-2.79,16.3-.43,3.37-1,7.55,1.66,10.2,4.22,4.25,12.1,2.78,17.39,2.46.66,0,1.63-.9,2.51-1.91,8.06.29,16.12.57,24.17,1,10.56.58,21.08,2,31.66,2.19,11.17.22,22.33,0,33.49-.33,4.92-.14,9.82.34,14.74.43,4.3.08,9.59,1.33,13.8.36,6.56-1.52,7.24-9.22,9.42-14.23,3.93-9,4.43-18.75,4.61-28.45.09-4.93.69-9.81.75-14.74C163.7,81.86,164.13,77.13,162.48,73.1ZM109.19,54.15c0,.18,0,.36,0,.53C109.11,56.64,107.61,54.35,109.19,54.15Zm48.43,38.31c-.21,9-.49,18.33-1.49,27.28-.72,6.41-3.23,12-5.13,18-.55-.05-1.05-.11-1.38-.12-1.2,0-2.39-.13-3.59-.2a5.7,5.7,0,0,0,.9-1.58c-.58,0-1.33.7-2,1.51-1.19-.07-2.38-.14-3.58-.16-5.23-.08-10.46-.59-15.69-.43-11.18.34-22.36.56-33.54.39-10.31-.16-20.55-1.54-30.84-2-11.54-.52-23.09-.69-34.64-1-.75,0-1.76.9-2.67,2-4.92-.6-9.09-2.45-9-8.76,0-6.62,1.62-14,3.08-20.47.72-3.2,1.83-6.29,2.34-9.55S21,91,21.72,87.81c1.42-6.34,3.75-13.38,7.53-18.76,3.24-4.61,7.08-5.69,12.09-6.77,2.61-.56,5.28.45,7.72-.3,7.17-2.2,9.24-10.73,11.49-17.48A38.24,38.24,0,0,1,67.09,46c4,2.37,2.4,7.2,2.9,11,.35,2.63,2.68,3.08,5.18,3.74,2,.52,3.46,0,5.41-.44,2.63-.63,4.65-.21,7.31.1,3.74.43,7.79-.21,11.61-.12,3.64.09,6.25-.08,9.06-2.47a25.65,25.65,0,0,0,5.78-6.6,18.41,18.41,0,0,0,1.18-3.59c3.39.09,6.87,1.19,8,4.35.86,2.52.13,5.17.69,7.78.5,2.34,1.41,4.16,1.65,6.53,0,.25.07.35.31.31,7.11.66,15.08.48,21.91,3.55C157.4,74.41,157.83,83.44,157.62,92.46Z"/><path class="cls-2" d="M94.12,87.4a7.4,7.4,0,0,0-6.6.2,10.48,10.48,0,0,0-3,2.53c-.07.08-.49.59-.85,1.11a34.21,34.21,0,0,0-2.82,3c-1.19,1.42-2.77,3.33-2.82,5.3-.12,4.73,6.45,5,9.49,3.53,3.84-1.91,9.06-6.57,9.5-11.15A4.22,4.22,0,0,0,94.12,87.4ZM83.29,96.11c-.67-1.51.09-2.63,1.07-3.58a9.47,9.47,0,0,1,2.06.07,9.14,9.14,0,0,1,3.47,1.31,3.44,3.44,0,0,1,1.46,3c0,.06-.17.72-.3,1.2a5.89,5.89,0,0,1-.7.26C88,99.16,84.4,98.63,83.29,96.11Z"/><path class="cls-2" d="M125.25,87c-1.71-6.84-6.16-12.25-11.94-16.12-6.75-4.52-14.94-6.29-22.92-7.17A29.55,29.55,0,0,0,67.33,70.8a10.7,10.7,0,0,0-.91.94C55.68,79,47.14,88.88,49.79,102.85,53,119.52,71.29,124,86,122.91c13.28-1,26.6-5.55,34.55-16.81C124.46,100.55,126.94,93.81,125.25,87ZM109.87,112.8c-12.74,5.59-31,6.48-43.28-.5A22.11,22.11,0,0,1,55.33,96c-.72-4.37-.64-8,1.19-12.11s3.91-5.76,7.54-8.2a16.51,16.51,0,0,0,2.6-2.09c11.61-7.73,30.55-3.93,41.33,3.62C119.56,85.36,126.36,105.56,109.87,112.8Z"/><path class="cls-2" d="M92,75.78c.17-.21,1.09-1.54.15-1.11a5.25,5.25,0,0,0-1.53,1.16l-.51.33a10.56,10.56,0,0,0-2,1.87,5.49,5.49,0,0,0-.79,1.18,6.33,6.33,0,0,0-.36.54,1.62,1.62,0,0,0-.31,1.09c0,.16,0,.22.2.2a3.47,3.47,0,0,0,1.45-.78,12.86,12.86,0,0,0,2-2A3.88,3.88,0,0,0,91,77.09a3.34,3.34,0,0,0,.45-.68C91.61,76.21,91.82,76,92,75.78Z"/><path class="cls-2" d="M88.69,108.35a2,2,0,0,0,.22-.81l0-.16a1.42,1.42,0,0,0-1.15.05,4.19,4.19,0,0,0-2.22,1.2,12.21,12.21,0,0,0-2.27,2.44,2.62,2.62,0,0,0-.55,1.21c0,.52.86-.07,1.43-.52a.7.7,0,0,0,.25,0c-.05.16-.09.38.15.32a3.1,3.1,0,0,0,.6-.23h0a1.54,1.54,0,0,1,.37,0c.27,0,.85-.47,1-.59a11.65,11.65,0,0,0,1.15-1.07,7.78,7.78,0,0,0,.9-1.09c0-.08.45-.71.26-.75Z"/><path class="cls-2" d="M68.59,90.19a.77.77,0,0,0-1-.56,3.62,3.62,0,0,0-1.13.6c-.13-.55-1.6.75-1.75.88a11.52,11.52,0,0,0-1.4,1.48,2.72,2.72,0,0,0-.64,1.08v.09a4,4,0,0,0-.45.8,1.34,1.34,0,0,0-.11,1.07c.11.26.43.32.69.32a3.23,3.23,0,0,0,1.57-.63,14.06,14.06,0,0,0,3.27-3C68,91.77,68.75,91,68.59,90.19Z"/><path class="cls-2" d="M110.39,90.47c-.34-.35-.85-.13-1.34.23a7.6,7.6,0,0,0-1.6,1,12.72,12.72,0,0,0-2.39,2.58,2.75,2.75,0,0,0-.46,1c-.2.3-.39.61-.56.93s-.39.61-.26.91,1.29-.61,1.35-.65c.21-.16.4-.33.59-.5,0,0,0,.08,0,.12.12.34,1.61-.87,1.61-.87a13.79,13.79,0,0,0,1.43-1.43,5.61,5.61,0,0,0,1.7-2.24A1.11,1.11,0,0,0,110.39,90.47Z"/><path class="cls-2" d="M99.44,78.56l-.53.23,0-.15a1.34,1.34,0,0,0-1.26,0,9.8,9.8,0,0,0-2.91,2.45,6.23,6.23,0,0,0-1.06,1.44c-.07.16-.26.6.11.53a2,2,0,0,0,.53-.13l.27-.12c-.07.19-.12.48.16.39l.31-.11h0c.42-.15.83-.31,1.23-.49a6.3,6.3,0,0,0,1.44-1.06,12.88,12.88,0,0,0,1.57-1.65c.24-.31.71-.8.71-1.21S99.64,78.46,99.44,78.56Z"/><path class="cls-2" d="M104.61,81.6a2.51,2.51,0,0,0-1.56.72,2.75,2.75,0,0,0-1,.45,11.74,11.74,0,0,0-2.65,2.52,4,4,0,0,0-.87,1.51c-.12.63.27,1,.89.85l.31-.11c.22.35,1.47-.7,1.57-.79a8.84,8.84,0,0,0,2.31-2.64,2,2,0,0,0,.21-.86C104,83,105.2,81.65,104.61,81.6Z"/><path class="cls-2" d="M110.4,101.3a2.59,2.59,0,0,0-.93-.12.5.5,0,0,0-.24-.59c-.85-.53-1.94.15-2.61.64a12.64,12.64,0,0,0-3,3.07c-.22.33-.75,1.14-.33,1.48s1.08.11,1.48-.09a3.3,3.3,0,0,0,.32-.18,3.45,3.45,0,0,0,1.2-.59l0,0h.05a3.12,3.12,0,0,1,.61,0c.28,0,.87-.48,1-.6a10.07,10.07,0,0,0,1.17-1.09C109.33,103.06,110.72,101.4,110.4,101.3Z"/><path class="cls-2" d="M99.59,106.75a1.81,1.81,0,0,0-.31,0,.09.09,0,0,0,0-.06,1.4,1.4,0,0,0-.72-.18,1.87,1.87,0,0,0-.52.17,6.48,6.48,0,0,0-1.33.93,15.17,15.17,0,0,0-1.52,1.48A6.82,6.82,0,0,0,94,110.71a1.08,1.08,0,0,0-.07,1c0,.14.32,0,.65-.18v0c0,.08,0,.12.11.11a.41.41,0,0,0,.39-.09,6.23,6.23,0,0,0,1.46-1.07,7.28,7.28,0,0,0,.67-.48,10.82,10.82,0,0,0,1.51-1.44C98.89,108.37,100.24,106.75,99.59,106.75Z"/><path class="cls-2" d="M76.66,105.51l-.34-.47a.57.57,0,0,0,0-.13c0-.16,0-.23-.2-.2a2.71,2.71,0,0,0-1.25.43A11.23,11.23,0,0,0,72.63,107a10.32,10.32,0,0,0-1.89,2.42,1.69,1.69,0,0,0-.2,1.31l.18,0a1.85,1.85,0,0,0,.57-.1,5.56,5.56,0,0,0,2.07-1.52,2.37,2.37,0,0,0,.5-.27,9,9,0,0,0,1.37-1.16,8.42,8.42,0,0,0,1.16-1.37C76.5,106.11,76.82,105.71,76.66,105.51Z"/><path class="cls-2" d="M67.49,103.8c-.22.21-.44.41-.67.6C66.78,104.56,67,104.36,67.49,103.8Z"/><path class="cls-2" d="M69.49,100.92l-.5.22a1.36,1.36,0,0,0-1.65-.45,6.32,6.32,0,0,0-2.17,1.6,13,13,0,0,0-.93,1,2.79,2.79,0,0,0-.66,1.13c0,.19,0,.31.13.43s.6-.09,1-.37a.66.66,0,0,1,.52.61c0,.58,1.19-.35,1.31-.45l.33-.28a.74.74,0,0,1,.12-.25,5.25,5.25,0,0,0,.58-.38l0,0,0,0A8.73,8.73,0,0,0,69.36,102C69.54,101.73,70.38,100.54,69.49,100.92Z"/><path class="cls-2" d="M71.72,79.52a.82.82,0,0,0-.58-.18,1.8,1.8,0,0,0-.55.19,8.85,8.85,0,0,0-2.15,1.71,8.12,8.12,0,0,0-1.68,2.14,1.08,1.08,0,0,0-.12.72,1.24,1.24,0,0,0,.46.81.65.65,0,0,0,.51,0h0a4.06,4.06,0,0,0,1.7-1A13.48,13.48,0,0,0,71.16,82a4.84,4.84,0,0,0,.68-1A1.27,1.27,0,0,0,71.72,79.52Z"/><path class="cls-2" d="M82.08,74.35c-.12-.4-1.94,1.13-2,1.14s-.31.28-.46.42a8.36,8.36,0,0,0-1,.69,15.83,15.83,0,0,0-1.29,1.17,12.19,12.19,0,0,0-1.84,1.82c-.06.07-1.21,1.58-.89,1.65a1.41,1.41,0,0,0,1.14-.34,6.7,6.7,0,0,0,.68-.51,2,2,0,0,0,0,.59c0,.62,1.08-.2,1.26-.33a13.7,13.7,0,0,0,2.5-2.43,7.86,7.86,0,0,0,.66-.91C81.65,76.46,82.4,75.4,82.08,74.35Z"/><path class="cls-2" d="M185.17,39.65s-.13-.12-.22-.27a4.91,4.91,0,0,0-1.37-3.29,0,0,0,0,1,0,0c-.73-1.92-1.48-4-1.77-4.62-1.66-3.53-3.25-7.55-6-10.42-4.36-4.57-11.13-9.09-17.16-10.69-7-1.84-14-3.51-21-5.34-7.42-1.93-15.59-2.4-23.22-3.39C106.43.57,98.07-.54,90,.28c-8.59.88-17.2,1.77-25.74,3-7.72,1.13-14.2,2.45-21.14,6.06A124,124,0,0,0,25.42,20.78c-6.66,5.08-27.15,18.06-18.75,28-1.26,1.16-2.42,2.49-2,2.77l.19.12a.75.75,0,0,0,.75-.08A80.3,80.3,0,0,1,17,52.06c4.45.66,8.68-.25,13.07,0,6.68.47,11.46-.67,16-5.16l.36-.09c.79-.2,4.11-2.81,3.6-3.8-.28-.55,0-1.37-.24-2A4.77,4.77,0,0,0,49,39.87c-.5-.73-1.54-2.48-1.3-3.34.36-1.29,3.45-1.14,5.44-1v0h.11c.5,0,.92.06,1.2.06a1.45,1.45,0,0,0,.72-.25C69,34,82.76,33.2,96.65,34.2c7,.5,14,.32,20.92.72a119.13,119.13,0,0,1,11.93,1c1.4.22,5.26-.22,6.34.59.24.18.72,0,1.28-.4-.12.26-.16.47-.06.59.57.64,1,1.38,1.57,2a.86.86,0,0,0,1.18.13c-.15.15-.36.37-.67.73-.64.75-1.54,1.28-2.17,2.06a7.15,7.15,0,0,0-1.36,7.08c1.25,3.32,5.53,3.4,8.58,3.77,5.07.62,10.09,1.35,15.19,1.81,2.13.19,4.26.51,6.38.66s3.84-.53,5.93-.8c3.58-.47,5.44.11,8.31-2.4a13,13,0,0,0,4.45-6.39,19,19,0,0,0,.54-5.5C185.08,39.72,185.15,39.65,185.17,39.65Zm-6.3,8.53a12.81,12.81,0,0,0-1.78-.08c-1.83.25-3.32.92-5.21.86-3.9-.12-7.89-.65-11.79-1s-7.62-1-11.47-1.13c-3.52-.17-10.37-1.16-9-6,2.72-2.3,4.55-4.94,1.46-8.32-.14-.15-.56,0-1.08.4a1.81,1.81,0,0,0,.42-1.15c-.63-2.17-1.95-1.51-3.91-1.7-3.34-.33-6.48-.93-9.87-1-7.67-.25-15.33-.37-23-.6a310.79,310.79,0,0,0-46.43,2.4,2.67,2.67,0,0,0-1.33.79,11.17,11.17,0,0,0-4.75.46,14.91,14.91,0,0,0-5,4c-1.27,1.36-2.86,3-2.53,5a8.74,8.74,0,0,0,.8,2.44,8.62,8.62,0,0,1,1.12,2.1l0,.18-.2.21c-2,2.27-6.93,2-9.63,1.63-3.17-.37-6.12.09-9.3,0-4.42-.15-9-1.37-13.52-1.23.09-.21.11-.37,0-.43-10-7.83,3.28-15.85,9.51-20.7C29.12,20.06,37,14.61,44.91,11.52c8.07-3.16,17.62-3.13,26.15-4,9.14-.92,17.8-2,27-1s18.09,2.33,27.14,3.28c7.89.84,15.23,3.95,22.95,5.26s14.83,5.49,20.71,10.84c2.7,2.46,4.63,5.95,6.18,9.23.89,1.89,2,3.83,2.76,5.77.27.69.57,3.15,1.11,4.17A18.52,18.52,0,0,1,178.87,48.18Z"/></g></g></svg>