<svg xmlns="http://www.w3.org/2000/svg" viewBox="0 0 240.08 190.14"><defs><style>.cls-1{fill:#824a0a;}.cls-2{fill:#fff129;}.cls-3{fill:#fdc831;}.cls-4{fill:#db4d8d;}.cls-5{fill:#c21b26;}</style></defs><g id="Ebene_2" data-name="Ebene 2"><g id="Ebene_1-2" data-name="Ebene 1"><path class="cls-1" d="M26.55,23.63A53.36,53.36,0,0,1,11.23,1.88a1.83,1.83,0,0,1-.16-.68C11.08.11,12.62-.12,13.7.05A72.21,72.21,0,0,1,37.93,8.34,49.82,49.82,0,0,0,26.55,23.63Z"/><path class="cls-1" d="M191.82,12.78l9.39,12.73a1.41,1.41,0,0,1,.4,1c-.06.38-.63.63-.83.3A140.63,140.63,0,0,0,220.4,12.14c1.18-1.06,2.42-2.29,2.55-3.87C211.88,6,200,7.79,191.82,12.78Z"/><path class="cls-2" d="M55.82,184.42a14.68,14.68,0,0,1,1.5-4.84,5,5,0,0,1,4.07-2.68,15,15,0,0,0,2,.09,4.69,4.69,0,0,0,1.77-.75,57.32,57.32,0,0,0,5.37-3.62C68.63,171.38,66.49,170.48,55.82,184.42Z"/><path class="cls-3" d="M69.86,171.64c-6.53-1.19-10.14-8.89-9.24-15.47s5-12.19,9-17.49c-7.38-.61-12.09-9-11.39-16.39s5.22-13.76,9.72-19.64c1.07-1.4,2.2-3,2-4.73a8,8,0,0,0-1.77-3.41,23.22,23.22,0,0,1-4.32-14.9A60.35,60.35,0,0,1,70.4,46.76C54.25,41.51,37.49,35.9,25.56,24.41l8.08-12.09c1-1.48,2.31-3.13,4.08-3a5.31,5.31,0,0,1,2.49,1.07,76.17,76.17,0,0,0,19.78,9c3.53,1,7.15,1.81,10.47,3.39,4.45,2.12,8.1,5.56,12.93,7.92,3.45-4.39,8.89-6.68,14.2-8.37a32.11,32.11,0,0,1,10.72-1.93c4.14.13,8.1,1.62,12,3.12,7.52,2.91,15,5.93,23.22,8.79A71.3,71.3,0,0,1,192.43,14.4c2.14,3.75,5,7.1,7.42,11.57-12.5,9.5-27.65,15.48-43.57,18.92,2.08,3.65,4.18,7.36,5.21,11.44s.85,8.64-1.5,12.09a52.31,52.31,0,0,1-8,30.68c4.06,3.12,7.07,7.39,10,11.59,2.83,4,5.8,8.87,4.33,13.58a41.71,41.71,0,0,1,8.88-4.82c-1.5.89-3.36-.28-4.64-1.46-6.49-6-11-13.73-15.51-21.35a1.73,1.73,0,0,1,.39-2.72c5-4.41,11.19-7.51,17.93-10.37l2.39,5a45.62,45.62,0,0,1,20.34-11.74,14.42,14.42,0,0,0,.78,6,263.79,263.79,0,0,1,43.14-17.89,187,187,0,0,1-4.37,43.3l-45-1.12a34.42,34.42,0,0,1,7.38,22.69,101.14,101.14,0,0,1-21.1,9.73,47.18,47.18,0,0,1-.43,20.14l-13.94-3.51c1.32,5.25-3.19,10-7.29,13.54a16.94,16.94,0,0,1,8.52,11.05,5.23,5.23,0,0,1,0,3c-.91,2.44-4.25,2.74-6.8,2.25a29.84,29.84,0,0,1-20.24-15,129.14,129.14,0,0,1-49.94,1c-3.38,8.8-12.86,13.41-21.62,16.88-2.82,1.12-6.17,2.16-8.71.51-2.13-1.38-2.84-4.33-2.17-6.78a12.5,12.5,0,0,1,4.39-6.07A19.12,19.12,0,0,1,69.86,171.64Z"/><path class="cls-4" d="M65.17,68a12.31,12.31,0,0,0-3.1,8.78,36.33,36.33,0,0,0,1.72,9.37,8,8,0,0,0,1.06,2.59,5.31,5.31,0,0,0,3,1.86c3.89,1.06,8.24-1,10.43-4.38a13.71,13.71,0,0,0,1.08-11.65,13,13,0,0,0-5.94-7.45A6.89,6.89,0,0,0,65.17,68Z"/><path class="cls-4" d="M146.09,72.88c-2,1.92-4,3.93-4.94,6.49a10.14,10.14,0,0,0,4.2,12c3.87,2.26,9.09,1.52,12.58-1.29a15.6,15.6,0,0,0,5.4-11.85,11.24,11.24,0,0,0-1.11-5.46,8.68,8.68,0,0,0-8.6-4.36C150.23,68.87,147.43,71.55,146.09,72.88Z"/><path class="cls-5" d="M73.66,77.51,56.47,66.16c-.31,5.4-5.13,9.31-9.72,12.17a3.62,3.62,0,0,1-1.5.64,3.68,3.68,0,0,1-2.2-.75L32.74,72c-4.45-2.67-9.88-5.41-14.57-3.19a24.3,24.3,0,0,0,7.62,12.66A148.29,148.29,0,0,0,0,80.23L33.91,93.71a1.92,1.92,0,0,0,1.49.16c.71-.33.75-1.31.67-2.1L35.14,82a42.3,42.3,0,0,0,13.31,9.56A55,55,0,0,1,59.08,75.22,13.63,13.63,0,0,0,73.66,77.51Z"/><path class="cls-5" d="M151.68,80.1a93.73,93.73,0,0,1,29.5-11.37l.72,6.75,19-10.68c.35,2,.69,4.06,1,6.09q12.94-.78,25.93-.4C217,73.17,208.05,81.74,197,83.91l-2-9.36a66.3,66.3,0,0,1-21.73,14.1q.73-6,1.46-12C167.23,77.76,159.73,78.89,151.68,80.1Z"/></g></g></svg>